<?xml version="1.0" encoding="utf-8"?>
<!-- Generator: Adobe Illustrator 27.4.1, SVG Export Plug-In . SVG Version: 6.00 Build 0)  -->
<svg version="1.1" id="Layer_1" xmlns="http://www.w3.org/2000/svg" xmlns:xlink="http://www.w3.org/1999/xlink" x="0px" y="0px"
	 viewBox="0 0 288 288" style="enable-background:new 0 0 288 288;" xml:space="preserve">
<style type="text/css">
	.st0{fill:#FFFFFF;}
	.st1{clip-path:url(#SVGID_00000075147803974589258810000010806205332902470330_);}
	.st2{fill:#1F77B4;stroke:#FFFFFF;stroke-width:0.48;stroke-linejoin:round;}
	.st3{clip-path:url(#SVGID_00000139983208890364065310000013196782186298030213_);}
	.st4{clip-path:url(#SVGID_00000095327674166955735180000004965321292800370110_);}
	.st5{clip-path:url(#SVGID_00000034052963844574744200000009969423509110609084_);}
	.st6{clip-path:url(#SVGID_00000023968642401006381550000000839301838450628025_);}
	.st7{clip-path:url(#SVGID_00000098204745776376071860000006314248850845688985_);}
	.st8{clip-path:url(#SVGID_00000172437223915263619940000017059279583142989998_);}
	.st9{clip-path:url(#SVGID_00000083801879971266449990000007945629815641638572_);}
	.st10{clip-path:url(#SVGID_00000017505264742265429390000013360292952580943783_);}
	.st11{clip-path:url(#SVGID_00000039827498504308180800000016336885275464463771_);}
	.st12{clip-path:url(#SVGID_00000132801096738955409570000011041798401393053622_);}
	.st13{fill:#FF7F0E;stroke:#FFFFFF;stroke-width:0.48;stroke-linejoin:round;}
	.st14{clip-path:url(#SVGID_00000119106831651133966310000009369562445870810264_);}
	.st15{clip-path:url(#SVGID_00000158733252744130012320000004096852140975555504_);}
	.st16{clip-path:url(#SVGID_00000090283975222101711140000011859891270477703355_);}
	.st17{clip-path:url(#SVGID_00000025419086850380039380000008713532540705650348_);}
	.st18{clip-path:url(#SVGID_00000086677563577020498730000007918204585419017090_);}
	.st19{clip-path:url(#SVGID_00000169540735774450797560000010221738262501905824_);}
	.st20{clip-path:url(#SVGID_00000149361145238712133130000013103987815916986544_);}
	.st21{clip-path:url(#SVGID_00000077314403975470166530000002450452178543107983_);}
	.st22{clip-path:url(#SVGID_00000073710147275229264790000008141915889965221559_);}
	.st23{clip-path:url(#SVGID_00000043436376884087689740000003932413983141784757_);}
	.st24{fill:#2CA02C;stroke:#FFFFFF;stroke-width:0.48;stroke-linejoin:round;}
	.st25{clip-path:url(#SVGID_00000056401531008171024720000015022535727834907523_);}
	.st26{clip-path:url(#SVGID_00000130623073557304801590000000721279840737154196_);}
	.st27{clip-path:url(#SVGID_00000050628088959251480670000015023752537292814493_);}
	.st28{clip-path:url(#SVGID_00000091737658282877815890000009312885875014744721_);}
	.st29{clip-path:url(#SVGID_00000048494488771237316140000016428480113864508305_);}
	.st30{clip-path:url(#SVGID_00000117667082872378125150000007777464479142082178_);}
	.st31{clip-path:url(#SVGID_00000053503249582837462270000001212209710856730296_);}
	.st32{clip-path:url(#SVGID_00000057148905838089334000000015808647265973925310_);}
	.st33{clip-path:url(#SVGID_00000028313547059991742680000003397023543268642741_);}
	.st34{stroke:#000000;stroke-width:0.8;stroke-linejoin:round;}
	
		.st35{clip-path:url(#SVGID_00000113316462910659563110000015714279399484380298_);fill:none;stroke:#1F77B4;stroke-width:1.5;stroke-linecap:square;stroke-linejoin:round;}
	
		.st36{clip-path:url(#SVGID_00000070084770817718292150000002778158373945048963_);fill:none;stroke:#FF7F0E;stroke-width:1.5;stroke-linecap:square;stroke-linejoin:round;}
	
		.st37{clip-path:url(#SVGID_00000112632343925981014870000003634832354087977905_);fill:none;stroke:#2CA02C;stroke-width:1.5;stroke-linecap:square;stroke-linejoin:round;}
	.st38{fill:none;stroke:#000000;stroke-width:0.8;stroke-linecap:square;}
	.st39{fill:none;stroke:#1F77B4;stroke-width:1.5;stroke-linecap:square;stroke-linejoin:round;}
	.st40{fill:none;stroke:#FF7F0E;stroke-width:1.5;stroke-linecap:square;stroke-linejoin:round;}
	.st41{fill:none;stroke:#2CA02C;stroke-width:1.5;stroke-linecap:square;stroke-linejoin:round;}
</style>
<g id="figure_1">
	<g id="patch_1">
		<path class="st0" d="M0,288h288V0H0V288z"/>
	</g>
	<g id="patch_2">
		<path class="st0" d="M47.7,246h229.5V14.8H47.7V246z"/>
	</g>
	<g id="PolyCollection_1">
	</g>
	<g id="PolyCollection_2">
	</g>
	<g id="PolyCollection_3">
	</g>
	<g id="PathCollection_1">
		<g>
			<defs>
				<rect id="SVGID_1_" x="47.7" y="14.8" width="229.5" height="231.3"/>
			</defs>
			<clipPath id="SVGID_00000140013724760068557770000013165061024336933273_">
				<use xlink:href="#SVGID_1_"  style="overflow:visible;"/>
			</clipPath>
			<g style="clip-path:url(#SVGID_00000140013724760068557770000013165061024336933273_);">
				<g>
					<path id="C0_0_80157fa6a0" class="st2" d="M58.2,131.1c0.8,0,1.6-0.3,2.1-0.9c0.6-0.6,0.9-1.3,0.9-2.1s-0.3-1.6-0.9-2.1
						c-0.6-0.6-1.3-0.9-2.1-0.9s-1.6,0.3-2.1,0.9c-0.6,0.6-0.9,1.3-0.9,2.1s0.3,1.6,0.9,2.1C56.6,130.8,57.4,131.1,58.2,131.1z"/>
				</g>
			</g>
		</g>
		<g>
			<defs>
				<rect id="SVGID_00000125600445898469225070000007699824549857636525_" x="47.7" y="14.8" width="229.5" height="231.3"/>
			</defs>
			<clipPath id="SVGID_00000155831200300787088840000014611030430812517799_">
				<use xlink:href="#SVGID_00000125600445898469225070000007699824549857636525_"  style="overflow:visible;"/>
			</clipPath>
			<g style="clip-path:url(#SVGID_00000155831200300787088840000014611030430812517799_);">
				<g>
					<path id="C0_0_80157fa6a0_00000130636710181284013100000016479081582756371852_" class="st2" d="M81.3,135
						c0.8,0,1.6-0.3,2.1-0.9c0.6-0.6,0.9-1.3,0.9-2.1s-0.3-1.6-0.9-2.1c-0.6-0.6-1.3-0.9-2.1-0.9s-1.6,0.3-2.1,0.9
						c-0.6,0.6-0.9,1.3-0.9,2.1s0.3,1.6,0.9,2.1C79.8,134.6,80.5,135,81.3,135z"/>
				</g>
			</g>
		</g>
		<g>
			<defs>
				<rect id="SVGID_00000096038265843661769960000000332704221305649030_" x="47.7" y="14.8" width="229.5" height="231.3"/>
			</defs>
			<clipPath id="SVGID_00000124157371870274606340000016929303602329083548_">
				<use xlink:href="#SVGID_00000096038265843661769960000000332704221305649030_"  style="overflow:visible;"/>
			</clipPath>
			<g style="clip-path:url(#SVGID_00000124157371870274606340000016929303602329083548_);">
				<g>
					<path id="C0_0_80157fa6a0_00000058550305259859798820000013385324983330633114_" class="st2" d="M104.5,137
						c0.8,0,1.6-0.3,2.1-0.9c0.6-0.6,0.9-1.3,0.9-2.1s-0.3-1.6-0.9-2.1c-0.6-0.6-1.3-0.9-2.1-0.9s-1.6,0.3-2.1,0.9
						c-0.6,0.6-0.9,1.3-0.9,2.1s0.3,1.6,0.9,2.1C103,136.7,103.7,137,104.5,137z"/>
				</g>
			</g>
		</g>
		<g>
			<defs>
				<rect id="SVGID_00000181778717316143889910000015608170737093413771_" x="47.7" y="14.8" width="229.5" height="231.3"/>
			</defs>
			<clipPath id="SVGID_00000145753431409464951140000007048501108251155349_">
				<use xlink:href="#SVGID_00000181778717316143889910000015608170737093413771_"  style="overflow:visible;"/>
			</clipPath>
			<g style="clip-path:url(#SVGID_00000145753431409464951140000007048501108251155349_);">
				<g>
					<path id="C0_0_80157fa6a0_00000114041667155256686030000012093237666565108107_" class="st2" d="M127.7,134.8
						c0.8,0,1.6-0.3,2.1-0.9c0.6-0.6,0.9-1.3,0.9-2.1s-0.3-1.6-0.9-2.1c-0.6-0.6-1.3-0.9-2.1-0.9c-0.8,0-1.6,0.3-2.1,0.9
						c-0.6,0.6-0.9,1.3-0.9,2.1s0.3,1.6,0.9,2.1C126.1,134.4,126.9,134.8,127.7,134.8z"/>
				</g>
			</g>
		</g>
		<g>
			<defs>
				<rect id="SVGID_00000065069521256034439460000003628880655372784047_" x="47.7" y="14.8" width="229.5" height="231.3"/>
			</defs>
			<clipPath id="SVGID_00000182514118932742584300000014261119599148565397_">
				<use xlink:href="#SVGID_00000065069521256034439460000003628880655372784047_"  style="overflow:visible;"/>
			</clipPath>
			<g style="clip-path:url(#SVGID_00000182514118932742584300000014261119599148565397_);">
				<g>
					<path id="C0_0_80157fa6a0_00000179615271683068815790000003657165201850744478_" class="st2" d="M150.9,139.4
						c0.8,0,1.6-0.3,2.1-0.9s0.9-1.3,0.9-2.1s-0.3-1.6-0.9-2.1s-1.3-0.9-2.1-0.9s-1.6,0.3-2.1,0.9s-0.9,1.3-0.9,2.1s0.3,1.6,0.9,2.1
						S150.1,139.4,150.9,139.4z"/>
				</g>
			</g>
		</g>
		<g>
			<defs>
				<rect id="SVGID_00000054982737193109418490000000540094563932019345_" x="47.7" y="14.8" width="229.5" height="231.3"/>
			</defs>
			<clipPath id="SVGID_00000086689878589155377130000010252635013344742834_">
				<use xlink:href="#SVGID_00000054982737193109418490000000540094563932019345_"  style="overflow:visible;"/>
			</clipPath>
			<g style="clip-path:url(#SVGID_00000086689878589155377130000010252635013344742834_);">
				<g>
					<path id="C0_0_80157fa6a0_00000041983727180910129490000017060431656924849546_" class="st2" d="M174,135.4
						c0.8,0,1.6-0.3,2.1-0.9s0.9-1.3,0.9-2.1s-0.3-1.6-0.9-2.1s-1.3-0.9-2.1-0.9s-1.6,0.3-2.1,0.9s-0.9,1.3-0.9,2.1s0.3,1.6,0.9,2.1
						S173.3,135.4,174,135.4z"/>
				</g>
			</g>
		</g>
		<g>
			<defs>
				<rect id="SVGID_00000125561034401683529810000001647409229661159326_" x="47.7" y="14.8" width="229.5" height="231.3"/>
			</defs>
			<clipPath id="SVGID_00000039113524857732938000000008338897920644727725_">
				<use xlink:href="#SVGID_00000125561034401683529810000001647409229661159326_"  style="overflow:visible;"/>
			</clipPath>
			<g style="clip-path:url(#SVGID_00000039113524857732938000000008338897920644727725_);">
				<g>
					<path id="C0_0_80157fa6a0_00000138556499478013431730000008021451485725743491_" class="st2" d="M197.2,137.9
						c0.8,0,1.6-0.3,2.1-0.9s0.9-1.3,0.9-2.1s-0.3-1.6-0.9-2.1s-1.3-0.9-2.1-0.9s-1.6,0.3-2.1,0.9s-0.9,1.3-0.9,2.1s0.3,1.6,0.9,2.1
						S196.4,137.9,197.2,137.9z"/>
				</g>
			</g>
		</g>
		<g>
			<defs>
				<rect id="SVGID_00000030479530027941345740000005833145669060074903_" x="47.7" y="14.8" width="229.5" height="231.3"/>
			</defs>
			<clipPath id="SVGID_00000181062552911550987090000010287745478552628404_">
				<use xlink:href="#SVGID_00000030479530027941345740000005833145669060074903_"  style="overflow:visible;"/>
			</clipPath>
			<g style="clip-path:url(#SVGID_00000181062552911550987090000010287745478552628404_);">
				<g>
					<path id="C0_0_80157fa6a0_00000173850888021953744470000006697730376587923133_" class="st2" d="M220.4,136.9
						c0.8,0,1.6-0.3,2.1-0.9s0.9-1.3,0.9-2.1s-0.3-1.6-0.9-2.1s-1.3-0.9-2.1-0.9s-1.6,0.3-2.1,0.9s-0.9,1.3-0.9,2.1s0.3,1.6,0.9,2.1
						S219.6,136.9,220.4,136.9z"/>
				</g>
			</g>
		</g>
		<g>
			<defs>
				<rect id="SVGID_00000070118371104661674440000005165964337045150087_" x="47.7" y="14.8" width="229.5" height="231.3"/>
			</defs>
			<clipPath id="SVGID_00000093177289185906923540000005525849070602519706_">
				<use xlink:href="#SVGID_00000070118371104661674440000005165964337045150087_"  style="overflow:visible;"/>
			</clipPath>
			<g style="clip-path:url(#SVGID_00000093177289185906923540000005525849070602519706_);">
				<g>
					<path id="C0_0_80157fa6a0_00000150076157769649552590000001602638181067728801_" class="st2" d="M243.6,141.2
						c0.8,0,1.6-0.3,2.1-0.9s0.9-1.3,0.9-2.1s-0.3-1.6-0.9-2.1s-1.3-0.9-2.1-0.9s-1.6,0.3-2.1,0.9s-0.9,1.3-0.9,2.1s0.3,1.6,0.9,2.1
						S242.8,141.2,243.6,141.2z"/>
				</g>
			</g>
		</g>
		<g>
			<defs>
				<rect id="SVGID_00000176736855887247217640000010197656282285201299_" x="47.7" y="14.8" width="229.5" height="231.3"/>
			</defs>
			<clipPath id="SVGID_00000059280543095281260240000005950267838125495962_">
				<use xlink:href="#SVGID_00000176736855887247217640000010197656282285201299_"  style="overflow:visible;"/>
			</clipPath>
			<g style="clip-path:url(#SVGID_00000059280543095281260240000005950267838125495962_);">
				<g>
					<path id="C0_0_80157fa6a0_00000088134255978869842930000000185503204399192720_" class="st2" d="M266.8,136.2
						c0.8,0,1.6-0.3,2.1-0.9c0.6-0.6,0.9-1.3,0.9-2.1s-0.3-1.6-0.9-2.1c-0.6-0.6-1.3-0.9-2.1-0.9s-1.6,0.3-2.1,0.9
						c-0.6,0.6-0.9,1.3-0.9,2.1s0.3,1.6,0.9,2.1C265.2,135.9,266,136.2,266.8,136.2z"/>
				</g>
			</g>
		</g>
		<g>
			<defs>
				<rect id="SVGID_00000000912149909130725140000017665089353903209602_" x="47.7" y="14.8" width="229.5" height="231.3"/>
			</defs>
			<clipPath id="SVGID_00000159454861466401564030000015864430323724573879_">
				<use xlink:href="#SVGID_00000000912149909130725140000017665089353903209602_"  style="overflow:visible;"/>
			</clipPath>
			<g style="clip-path:url(#SVGID_00000159454861466401564030000015864430323724573879_);">
				<g>
					<path id="C0_0_80157fa6a0_00000098206862648089616630000001442964486058492079_" class="st13" d="M58.2,137.2
						c0.8,0,1.6-0.3,2.1-0.9c0.6-0.6,0.9-1.3,0.9-2.1s-0.3-1.6-0.9-2.1c-0.6-0.6-1.3-0.9-2.1-0.9s-1.6,0.3-2.1,0.9
						c-0.6,0.6-0.9,1.3-0.9,2.1s0.3,1.6,0.9,2.1C56.6,136.9,57.4,137.2,58.2,137.2z"/>
				</g>
			</g>
		</g>
		<g>
			<defs>
				<rect id="SVGID_00000127730816319711704270000011629974008433804991_" x="47.7" y="14.8" width="229.5" height="231.3"/>
			</defs>
			<clipPath id="SVGID_00000013915692798951547970000010975492450227185571_">
				<use xlink:href="#SVGID_00000127730816319711704270000011629974008433804991_"  style="overflow:visible;"/>
			</clipPath>
			<g style="clip-path:url(#SVGID_00000013915692798951547970000010975492450227185571_);">
				<g>
					<path id="C0_0_80157fa6a0_00000132087550904734691110000015551421058086077369_" class="st13" d="M81.3,136.6
						c0.8,0,1.6-0.3,2.1-0.9c0.6-0.6,0.9-1.3,0.9-2.1s-0.3-1.6-0.9-2.1c-0.6-0.6-1.3-0.9-2.1-0.9s-1.6,0.3-2.1,0.9
						c-0.6,0.6-0.9,1.3-0.9,2.1s0.3,1.6,0.9,2.1C79.8,136.3,80.5,136.6,81.3,136.6z"/>
				</g>
			</g>
		</g>
		<g>
			<defs>
				<rect id="SVGID_00000005242129628396923170000008052333476821137852_" x="47.7" y="14.8" width="229.5" height="231.3"/>
			</defs>
			<clipPath id="SVGID_00000181769928953263603450000010734450541162653337_">
				<use xlink:href="#SVGID_00000005242129628396923170000008052333476821137852_"  style="overflow:visible;"/>
			</clipPath>
			<g style="clip-path:url(#SVGID_00000181769928953263603450000010734450541162653337_);">
				<g>
					<path id="C0_0_80157fa6a0_00000183235507963952889210000015691932003775417534_" class="st13" d="M104.5,138.2
						c0.8,0,1.6-0.3,2.1-0.9c0.6-0.6,0.9-1.3,0.9-2.1s-0.3-1.6-0.9-2.1c-0.6-0.6-1.3-0.9-2.1-0.9s-1.6,0.3-2.1,0.9
						c-0.6,0.6-0.9,1.3-0.9,2.1s0.3,1.6,0.9,2.1C103,137.9,103.7,138.2,104.5,138.2z"/>
				</g>
			</g>
		</g>
		<g>
			<defs>
				<rect id="SVGID_00000183970642726323953640000005510582021215980686_" x="47.7" y="14.8" width="229.5" height="231.3"/>
			</defs>
			<clipPath id="SVGID_00000168116840557119783620000012799216208133439623_">
				<use xlink:href="#SVGID_00000183970642726323953640000005510582021215980686_"  style="overflow:visible;"/>
			</clipPath>
			<g style="clip-path:url(#SVGID_00000168116840557119783620000012799216208133439623_);">
				<g>
					<path id="C0_0_80157fa6a0_00000148630646221605732730000017904847996417527461_" class="st13" d="M127.7,138.5
						c0.8,0,1.6-0.3,2.1-0.9c0.6-0.6,0.9-1.3,0.9-2.1s-0.3-1.6-0.9-2.1c-0.6-0.6-1.3-0.9-2.1-0.9c-0.8,0-1.6,0.3-2.1,0.9
						c-0.6,0.6-0.9,1.3-0.9,2.1s0.3,1.6,0.9,2.1C126.1,138.2,126.9,138.5,127.7,138.5z"/>
				</g>
			</g>
		</g>
		<g>
			<defs>
				<rect id="SVGID_00000121979296688192026790000011331447164177951409_" x="47.7" y="14.8" width="229.5" height="231.3"/>
			</defs>
			<clipPath id="SVGID_00000052103332941807046130000006614310786902374821_">
				<use xlink:href="#SVGID_00000121979296688192026790000011331447164177951409_"  style="overflow:visible;"/>
			</clipPath>
			<g style="clip-path:url(#SVGID_00000052103332941807046130000006614310786902374821_);">
				<g>
					<path id="C0_0_80157fa6a0_00000134237372374376380330000002402802657199346855_" class="st13" d="M150.9,141.2
						c0.8,0,1.6-0.3,2.1-0.9s0.9-1.3,0.9-2.1s-0.3-1.6-0.9-2.1s-1.3-0.9-2.1-0.9s-1.6,0.3-2.1,0.9s-0.9,1.3-0.9,2.1s0.3,1.6,0.9,2.1
						S150.1,141.2,150.9,141.2z"/>
				</g>
			</g>
		</g>
		<g>
			<defs>
				<rect id="SVGID_00000142149224509283742730000002304540590379114676_" x="47.7" y="14.8" width="229.5" height="231.3"/>
			</defs>
			<clipPath id="SVGID_00000011716927904829491040000010030178515784029886_">
				<use xlink:href="#SVGID_00000142149224509283742730000002304540590379114676_"  style="overflow:visible;"/>
			</clipPath>
			<g style="clip-path:url(#SVGID_00000011716927904829491040000010030178515784029886_);">
				<g>
					<path id="C0_0_80157fa6a0_00000031927757878199248990000009584378633988896160_" class="st13" d="M174,137
						c0.8,0,1.6-0.3,2.1-0.9s0.9-1.3,0.9-2.1s-0.3-1.6-0.9-2.1s-1.3-0.9-2.1-0.9s-1.6,0.3-2.1,0.9s-0.9,1.3-0.9,2.1s0.3,1.6,0.9,2.1
						S173.3,137,174,137z"/>
				</g>
			</g>
		</g>
		<g>
			<defs>
				<rect id="SVGID_00000041264738862356296600000006183792488459038141_" x="47.7" y="14.8" width="229.5" height="231.3"/>
			</defs>
			<clipPath id="SVGID_00000116225543993040063940000006779460585833274553_">
				<use xlink:href="#SVGID_00000041264738862356296600000006183792488459038141_"  style="overflow:visible;"/>
			</clipPath>
			<g style="clip-path:url(#SVGID_00000116225543993040063940000006779460585833274553_);">
				<g>
					<path id="C0_0_80157fa6a0_00000178919231760614287270000004150819063306285726_" class="st13" d="M197.2,136.9
						c0.8,0,1.6-0.3,2.1-0.9s0.9-1.3,0.9-2.1s-0.3-1.6-0.9-2.1s-1.3-0.9-2.1-0.9s-1.6,0.3-2.1,0.9s-0.9,1.3-0.9,2.1s0.3,1.6,0.9,2.1
						S196.4,136.9,197.2,136.9z"/>
				</g>
			</g>
		</g>
		<g>
			<defs>
				<rect id="SVGID_00000097478933204889212870000018347776745571586441_" x="47.7" y="14.8" width="229.5" height="231.3"/>
			</defs>
			<clipPath id="SVGID_00000044866405846396268160000017338802147148465812_">
				<use xlink:href="#SVGID_00000097478933204889212870000018347776745571586441_"  style="overflow:visible;"/>
			</clipPath>
			<g style="clip-path:url(#SVGID_00000044866405846396268160000017338802147148465812_);">
				<g>
					<path id="C0_0_80157fa6a0_00000055665747718749079510000013471649042970870940_" class="st13" d="M220.4,137.7
						c0.8,0,1.6-0.3,2.1-0.9s0.9-1.3,0.9-2.1s-0.3-1.6-0.9-2.1s-1.3-0.9-2.1-0.9s-1.6,0.3-2.1,0.9s-0.9,1.3-0.9,2.1s0.3,1.6,0.9,2.1
						S219.6,137.7,220.4,137.7z"/>
				</g>
			</g>
		</g>
		<g>
			<defs>
				<rect id="SVGID_00000065752844867427831670000017425472624543939492_" x="47.7" y="14.8" width="229.5" height="231.3"/>
			</defs>
			<clipPath id="SVGID_00000155858923500884923950000012275626630381470348_">
				<use xlink:href="#SVGID_00000065752844867427831670000017425472624543939492_"  style="overflow:visible;"/>
			</clipPath>
			<g style="clip-path:url(#SVGID_00000155858923500884923950000012275626630381470348_);">
				<g>
					<path id="C0_0_80157fa6a0_00000011742666404653863980000004076647680431770032_" class="st13" d="M243.6,136.6
						c0.8,0,1.6-0.3,2.1-0.9s0.9-1.3,0.9-2.1s-0.3-1.6-0.9-2.1s-1.3-0.9-2.1-0.9s-1.6,0.3-2.1,0.9s-0.9,1.3-0.9,2.1s0.3,1.6,0.9,2.1
						S242.8,136.6,243.6,136.6z"/>
				</g>
			</g>
		</g>
		<g>
			<defs>
				<rect id="SVGID_00000026125027068509125990000005235210942300340129_" x="47.7" y="14.8" width="229.5" height="231.3"/>
			</defs>
			<clipPath id="SVGID_00000031890520518468493380000011331723716594514068_">
				<use xlink:href="#SVGID_00000026125027068509125990000005235210942300340129_"  style="overflow:visible;"/>
			</clipPath>
			<g style="clip-path:url(#SVGID_00000031890520518468493380000011331723716594514068_);">
				<g>
					<path id="C0_0_80157fa6a0_00000021092690211535602010000003351155909556951709_" class="st13" d="M266.8,140.8
						c0.8,0,1.6-0.3,2.1-0.9c0.6-0.6,0.9-1.3,0.9-2.1s-0.3-1.6-0.9-2.1c-0.6-0.6-1.3-0.9-2.1-0.9s-1.6,0.3-2.1,0.9
						c-0.6,0.6-0.9,1.3-0.9,2.1s0.3,1.6,0.9,2.1C265.2,140.5,266,140.8,266.8,140.8z"/>
				</g>
			</g>
		</g>
		<g>
			<defs>
				<rect id="SVGID_00000017498517703781650310000002365566811370730896_" x="47.7" y="14.8" width="229.5" height="231.3"/>
			</defs>
			<clipPath id="SVGID_00000160897763490572439850000013242407321932871073_">
				<use xlink:href="#SVGID_00000017498517703781650310000002365566811370730896_"  style="overflow:visible;"/>
			</clipPath>
			<g style="clip-path:url(#SVGID_00000160897763490572439850000013242407321932871073_);">
				<g>
					<path id="C0_0_80157fa6a0_00000075876448247871842540000014934350245165407116_" class="st24" d="M58.2,137
						c0.8,0,1.6-0.3,2.1-0.9c0.6-0.6,0.9-1.3,0.9-2.1s-0.3-1.6-0.9-2.1c-0.6-0.6-1.3-0.9-2.1-0.9s-1.6,0.3-2.1,0.9
						c-0.6,0.6-0.9,1.3-0.9,2.1s0.3,1.6,0.9,2.1C56.6,136.7,57.4,137,58.2,137z"/>
				</g>
			</g>
		</g>
		<g>
			<defs>
				<rect id="SVGID_00000079485119222348262820000015480108268014743730_" x="47.7" y="14.8" width="229.5" height="231.3"/>
			</defs>
			<clipPath id="SVGID_00000118374417696796363310000006093641492703115923_">
				<use xlink:href="#SVGID_00000079485119222348262820000015480108268014743730_"  style="overflow:visible;"/>
			</clipPath>
			<g style="clip-path:url(#SVGID_00000118374417696796363310000006093641492703115923_);">
				<g>
					<path id="C0_0_80157fa6a0_00000041995132724827907240000001735737926024622265_" class="st24" d="M81.3,135.1
						c0.8,0,1.6-0.3,2.1-0.9c0.6-0.6,0.9-1.3,0.9-2.1s-0.3-1.6-0.9-2.1c-0.6-0.6-1.3-0.9-2.1-0.9s-1.6,0.3-2.1,0.9
						c-0.6,0.6-0.9,1.3-0.9,2.1s0.3,1.6,0.9,2.1C79.8,134.8,80.5,135.1,81.3,135.1z"/>
				</g>
			</g>
		</g>
		<g>
			<defs>
				<rect id="SVGID_00000031890086397845494030000004804316276535738814_" x="47.7" y="14.8" width="229.5" height="231.3"/>
			</defs>
			<clipPath id="SVGID_00000033368504408747677890000003859684935570835130_">
				<use xlink:href="#SVGID_00000031890086397845494030000004804316276535738814_"  style="overflow:visible;"/>
			</clipPath>
			<g style="clip-path:url(#SVGID_00000033368504408747677890000003859684935570835130_);">
				<g>
					<path id="C0_0_80157fa6a0_00000079487530822092303720000005492686193833673878_" class="st24" d="M104.5,131.7
						c0.8,0,1.6-0.3,2.1-0.9c0.6-0.6,0.9-1.3,0.9-2.1s-0.3-1.6-0.9-2.1c-0.6-0.6-1.3-0.9-2.1-0.9s-1.6,0.3-2.1,0.9
						c-0.6,0.6-0.9,1.3-0.9,2.1s0.3,1.6,0.9,2.1C103,131.4,103.7,131.7,104.5,131.7z"/>
				</g>
			</g>
		</g>
		<g>
			<defs>
				<rect id="SVGID_00000031900802796693674810000010176938707166114957_" x="47.7" y="14.8" width="229.5" height="231.3"/>
			</defs>
			<clipPath id="SVGID_00000142859648251209735610000008055340660421699734_">
				<use xlink:href="#SVGID_00000031900802796693674810000010176938707166114957_"  style="overflow:visible;"/>
			</clipPath>
			<g style="clip-path:url(#SVGID_00000142859648251209735610000008055340660421699734_);">
				<g>
					<path id="C0_0_80157fa6a0_00000042716983595463412840000013373444445026449802_" class="st24" d="M127.7,135.6
						c0.8,0,1.6-0.3,2.1-0.9c0.6-0.6,0.9-1.3,0.9-2.1s-0.3-1.6-0.9-2.1c-0.6-0.6-1.3-0.9-2.1-0.9c-0.8,0-1.6,0.3-2.1,0.9
						c-0.6,0.6-0.9,1.3-0.9,2.1s0.3,1.6,0.9,2.1C126.1,135.3,126.9,135.6,127.7,135.6z"/>
				</g>
			</g>
		</g>
		<g>
			<defs>
				<rect id="SVGID_00000043416581624647360850000000515289247508567984_" x="47.7" y="14.8" width="229.5" height="231.3"/>
			</defs>
			<clipPath id="SVGID_00000093890814604355146690000002113665004443566978_">
				<use xlink:href="#SVGID_00000043416581624647360850000000515289247508567984_"  style="overflow:visible;"/>
			</clipPath>
			<g style="clip-path:url(#SVGID_00000093890814604355146690000002113665004443566978_);">
				<g>
					<path id="C0_0_80157fa6a0_00000110460855826080720100000008082555099710285711_" class="st24" d="M150.9,134.4
						c0.8,0,1.6-0.3,2.1-0.9s0.9-1.3,0.9-2.1s-0.3-1.6-0.9-2.1s-1.3-0.9-2.1-0.9s-1.6,0.3-2.1,0.9s-0.9,1.3-0.9,2.1s0.3,1.6,0.9,2.1
						S150.1,134.4,150.9,134.4z"/>
				</g>
			</g>
		</g>
		<g>
			<defs>
				<rect id="SVGID_00000077301656746458191110000010634425497487487416_" x="47.7" y="14.8" width="229.5" height="231.3"/>
			</defs>
			<clipPath id="SVGID_00000068660918908178799680000000498527045861082002_">
				<use xlink:href="#SVGID_00000077301656746458191110000010634425497487487416_"  style="overflow:visible;"/>
			</clipPath>
			<g style="clip-path:url(#SVGID_00000068660918908178799680000000498527045861082002_);">
				<g>
					<path id="C0_0_80157fa6a0_00000136403816342614222970000010941854969667093163_" class="st24" d="M174,134.9
						c0.8,0,1.6-0.3,2.1-0.9s0.9-1.3,0.9-2.1s-0.3-1.6-0.9-2.1s-1.3-0.9-2.1-0.9s-1.6,0.3-2.1,0.9s-0.9,1.3-0.9,2.1s0.3,1.6,0.9,2.1
						S173.3,134.9,174,134.9z"/>
				</g>
			</g>
		</g>
		<g>
			<defs>
				<rect id="SVGID_00000033352566666729979780000005412329728639575191_" x="47.7" y="14.8" width="229.5" height="231.3"/>
			</defs>
			<clipPath id="SVGID_00000155140591614687884480000017214393396749707177_">
				<use xlink:href="#SVGID_00000033352566666729979780000005412329728639575191_"  style="overflow:visible;"/>
			</clipPath>
			<g style="clip-path:url(#SVGID_00000155140591614687884480000017214393396749707177_);">
				<g>
					<path id="C0_0_80157fa6a0_00000029018300785370541610000014517690898601353381_" class="st24" d="M197.2,135.5
						c0.8,0,1.6-0.3,2.1-0.9s0.9-1.3,0.9-2.1s-0.3-1.6-0.9-2.1s-1.3-0.9-2.1-0.9s-1.6,0.3-2.1,0.9s-0.9,1.3-0.9,2.1s0.3,1.6,0.9,2.1
						S196.4,135.5,197.2,135.5z"/>
				</g>
			</g>
		</g>
		<g>
			<defs>
				<rect id="SVGID_00000049938427942230374630000004429483879363610788_" x="47.7" y="14.8" width="229.5" height="231.3"/>
			</defs>
			<clipPath id="SVGID_00000114068894251407898560000007915476042208859300_">
				<use xlink:href="#SVGID_00000049938427942230374630000004429483879363610788_"  style="overflow:visible;"/>
			</clipPath>
			<g style="clip-path:url(#SVGID_00000114068894251407898560000007915476042208859300_);">
				<g>
					<path id="C0_0_80157fa6a0_00000144311022545248520910000000823632163851013047_" class="st24" d="M220.4,135.6
						c0.8,0,1.6-0.3,2.1-0.9s0.9-1.3,0.9-2.1s-0.3-1.6-0.9-2.1s-1.3-0.9-2.1-0.9s-1.6,0.3-2.1,0.9s-0.9,1.3-0.9,2.1s0.3,1.6,0.9,2.1
						S219.6,135.6,220.4,135.6z"/>
				</g>
			</g>
		</g>
		<g>
			<defs>
				<rect id="SVGID_00000001655060110433476780000006884786185516639401_" x="47.7" y="14.8" width="229.5" height="231.3"/>
			</defs>
			<clipPath id="SVGID_00000053506458427286778960000015354939167555063450_">
				<use xlink:href="#SVGID_00000001655060110433476780000006884786185516639401_"  style="overflow:visible;"/>
			</clipPath>
			<g style="clip-path:url(#SVGID_00000053506458427286778960000015354939167555063450_);">
				<g>
					<path id="C0_0_80157fa6a0_00000029760226868326975310000017449161148162991011_" class="st24" d="M243.6,135.9
						c0.8,0,1.6-0.3,2.1-0.9s0.9-1.3,0.9-2.1s-0.3-1.6-0.9-2.1s-1.3-0.9-2.1-0.9s-1.6,0.3-2.1,0.9s-0.9,1.3-0.9,2.1s0.3,1.6,0.9,2.1
						S242.8,135.9,243.6,135.9z"/>
				</g>
			</g>
		</g>
		<g>
			<defs>
				<rect id="SVGID_00000128449891748135545000000010358453206999011465_" x="47.7" y="14.8" width="229.5" height="231.3"/>
			</defs>
			<clipPath id="SVGID_00000156563675831217965000000004727235805329082544_">
				<use xlink:href="#SVGID_00000128449891748135545000000010358453206999011465_"  style="overflow:visible;"/>
			</clipPath>
			<g style="clip-path:url(#SVGID_00000156563675831217965000000004727235805329082544_);">
				<g>
					<path id="C0_0_80157fa6a0_00000100368641396799836940000011176351462942354067_" class="st24" d="M266.8,133.7
						c0.8,0,1.6-0.3,2.1-0.9c0.6-0.6,0.9-1.3,0.9-2.1s-0.3-1.6-0.9-2.1c-0.6-0.6-1.3-0.9-2.1-0.9s-1.6,0.3-2.1,0.9
						c-0.6,0.6-0.9,1.3-0.9,2.1s0.3,1.6,0.9,2.1C265.2,133.4,266,133.7,266.8,133.7z"/>
				</g>
			</g>
		</g>
	</g>
	<g id="matplotlib.axis_1">
		<g id="xtick_1">
			<g id="line2d_1">
				<g>
					<g>
						<path id="m4c0ea6e476" class="st34" d="M81.3,246v3.5"/>
					</g>
				</g>
			</g>
			<g id="text_1">
				<g transform="translate(78.149457 260.638438) scale(0.1 -0.1)">
					<g>
						<path id="DejaVuSans-32" d="M19.2,8.3h34.4V0H7.3v8.3c3.7,3.9,8.8,9.1,15.3,15.6c6.5,6.5,10.5,10.7,12.2,12.6
							c3.2,3.5,5.4,6.5,6.6,9c1.3,2.5,1.9,4.9,1.9,7.2c0,3.9-1.4,7-4.1,9.5c-2.7,2.4-6.3,3.7-10.6,3.7c-3.1,0-6.4-0.5-9.8-1.6
							c-3.4-1.1-7.1-2.7-11-4.9v10c4,1.6,7.7,2.8,11.1,3.6c3.5,0.8,6.6,1.2,9.5,1.2c7.6,0,13.6-1.9,18.1-5.7
							c4.5-3.8,6.7-8.8,6.7-15.1c0-3-0.6-5.8-1.7-8.5c-1.1-2.7-3.2-5.8-6.1-9.5c-0.8-0.9-3.4-3.7-7.8-8.2
							C33.3,22.7,27.1,16.4,19.2,8.3z"/>
					</g>
				</g>
			</g>
		</g>
		<g id="xtick_2">
			<g id="line2d_2">
				<g>
					<g>
						<path id="m4c0ea6e476_00000124145684873885969540000018080017483386142364_" class="st34" d="M127.7,246v3.5"/>
					</g>
				</g>
			</g>
			<g id="text_2">
				<g transform="translate(124.509053 260.638438) scale(0.1 -0.1)">
					<g>
						<path id="DejaVuSans-34" d="M37.8,64.3L12.9,25.4h24.9V64.3z M35.2,72.9h12.4V25.4H58v-8.2H47.6V0h-9.8v17.2H4.9v9.5
							L35.2,72.9z"/>
					</g>
				</g>
			</g>
		</g>
		<g id="xtick_3">
			<g id="line2d_3">
				<g>
					<g>
						<path id="m4c0ea6e476_00000078019833039625539270000018323092775613004219_" class="st34" d="M174,246v3.5"/>
					</g>
				</g>
			</g>
			<g id="text_3">
				<g transform="translate(170.868649 260.638438) scale(0.1 -0.1)">
					<g>
						<path id="DejaVuSans-36" d="M33,40.4c-4.4,0-7.9-1.5-10.5-4.5c-2.6-3-3.9-7.2-3.9-12.4c0-5.2,1.3-9.4,3.9-12.4
							c2.6-3,6.1-4.6,10.5-4.6s7.9,1.5,10.5,4.6c2.6,3.1,3.9,7.2,3.9,12.4c0,5.3-1.3,9.4-3.9,12.4C40.9,38.9,37.4,40.4,33,40.4z
							 M52.6,71.3v-9c-2.5,1.2-5,2.1-7.5,2.7c-2.5,0.6-5,0.9-7.5,0.9c-6.5,0-11.5-2.2-14.9-6.6c-3.4-4.4-5.4-11-5.9-19.9
							c1.9,2.8,4.3,5,7.2,6.5c2.9,1.5,6.1,2.3,9.6,2.3c7.3,0,13.1-2.2,17.4-6.7c4.2-4.4,6.4-10.5,6.4-18.1c0-7.5-2.2-13.5-6.6-18
							C46.3,0.8,40.4-1.4,33-1.4c-8.4,0-14.9,3.2-19.3,9.7C9.2,14.7,7,24.1,7,36.4c0,11.5,2.7,20.7,8.2,27.6
							c5.5,6.9,12.8,10.3,22,10.3c2.5,0,5-0.2,7.5-0.7S49.9,72.3,52.6,71.3z"/>
					</g>
				</g>
			</g>
		</g>
		<g id="xtick_4">
			<g id="line2d_4">
				<g>
					<g>
						<path id="m4c0ea6e476_00000007414664189938955110000001189336727386179991_" class="st34" d="M220.4,246v3.5"/>
					</g>
				</g>
			</g>
			<g id="text_4">
				<g transform="translate(217.228245 260.638438) scale(0.1 -0.1)">
					<g>
						<path id="DejaVuSans-38" d="M31.8,34.6c-4.7,0-8.4-1.3-11.1-3.8c-2.7-2.5-4-6-4-10.3c0-4.4,1.3-7.8,4-10.4
							c2.7-2.5,6.4-3.8,11.1-3.8s8.4,1.3,11.1,3.8c2.7,2.5,4.1,6,4.1,10.3c0,4.4-1.3,7.8-4,10.3C40.2,33.4,36.5,34.6,31.8,34.6z
							 M21.9,38.8c-4.2,1-7.5,3-9.9,5.9c-2.4,2.9-3.5,6.4-3.5,10.6c0,5.8,2.1,10.4,6.2,13.8c4.2,3.4,9.8,5.1,17.1,5.1
							c7.3,0,13-1.7,17.1-5.1s6.2-8,6.2-13.8c0-4.2-1.2-7.7-3.5-10.6c-2.4-2.9-5.6-4.9-9.8-5.9c4.8-1.1,8.4-3.3,11.1-6.5
							c2.7-3.2,4-7.2,4-11.8c0-7.1-2.2-12.5-6.5-16.3C46,0.5,39.8-1.4,31.8-1.4c-8,0-14.2,1.9-18.5,5.7C8.9,8,6.8,13.4,6.8,20.5
							c0,4.6,1.3,8.6,4,11.8C13.5,35.5,17.2,37.7,21.9,38.8z M18.3,54.4c0-3.8,1.2-6.7,3.5-8.8c2.4-2.1,5.7-3.2,9.9-3.2
							c4.2,0,7.6,1.1,9.9,3.2c2.4,2.1,3.6,5.1,3.6,8.8c0,3.8-1.2,6.7-3.6,8.8c-2.4,2.1-5.7,3.2-9.9,3.2c-4.3,0-7.6-1.1-9.9-3.2
							C19.5,61.1,18.3,58.2,18.3,54.4z"/>
					</g>
				</g>
			</g>
		</g>
		<g id="xtick_5">
			<g id="line2d_5">
				<g>
					<g>
						<path id="m4c0ea6e476_00000176014316674186493220000011747053664242542219_" class="st34" d="M266.8,246v3.5"/>
					</g>
				</g>
			</g>
			<g id="text_5">
				<g transform="translate(260.406591 260.638438) scale(0.1 -0.1)">
					<g>
						<path id="DejaVuSans-31" d="M12.4,8.3h16.1v55.6L11,60.4v9l17.4,3.5h9.9V8.3h16.1V0h-42V8.3z"/>
					</g>
					<g>
						<path id="DejaVuSans-30" d="M95.4,66.4c-5.1,0-8.9-2.5-11.5-7.5c-2.6-5-3.8-12.5-3.8-22.5c0-10,1.3-17.5,3.8-22.5
							c2.6-5,6.4-7.5,11.5-7.5c5.1,0,8.9,2.5,11.5,7.5c2.6,5,3.8,12.5,3.8,22.5c0,10-1.3,17.5-3.8,22.5
							C104.4,63.9,100.5,66.4,95.4,66.4z M95.4,74.2c8.2,0,14.4-3.2,18.7-9.7c4.3-6.5,6.5-15.8,6.5-28.1c0-12.3-2.2-21.6-6.5-28.1
							c-4.3-6.5-10.6-9.7-18.7-9.7c-8.2,0-14.4,3.2-18.7,9.7c-4.3,6.5-6.5,15.8-6.5,28.1c0,12.3,2.2,21.7,6.5,28.1
							C81,71,87.2,74.2,95.4,74.2z"/>
					</g>
				</g>
			</g>
		</g>
		<g id="text_6">
			<g transform="translate(147.149062 274.316562) scale(0.1 -0.1)">
				<g>
					<path id="DejaVuSans-45" d="M9.8,72.9h46.1v-8.3H19.7V43h34.7v-8.3H19.7V8.3h37.1V0h-47V72.9z"/>
				</g>
				<g>
					<path id="DejaVuSans-70" d="M81.3,8.2v-29h-9v75.5h9v-8.3c1.9,3.2,4.3,5.7,7.2,7.2c2.9,1.6,6.3,2.4,10.3,2.4
						c6.6,0,12-2.6,16.2-7.9c4.2-5.3,6.2-12.2,6.2-20.8s-2.1-15.5-6.2-20.8c-4.1-5.3-9.5-7.9-16.2-7.9c-4,0-7.4,0.8-10.3,2.4
						C85.6,2.5,83.2,5,81.3,8.2z M111.9,27.3c0,6.6-1.4,11.8-4.1,15.5s-6.5,5.6-11.2,5.6c-4.8,0-8.5-1.9-11.2-5.6s-4.1-8.9-4.1-15.5
						s1.4-11.8,4.1-15.5s6.5-5.6,11.2-5.6c4.8,0,8.5,1.9,11.2,5.6S111.9,20.7,111.9,27.3z"/>
				</g>
				<g>
					<path id="DejaVuSans-6f" d="M157.3,48.4c-4.8,0-8.6-1.9-11.4-5.6c-2.8-3.8-4.2-8.9-4.2-15.5s1.4-11.7,4.2-15.5
						c2.8-3.8,6.6-5.6,11.5-5.6c4.8,0,8.6,1.9,11.4,5.7c2.8,3.8,4.2,8.9,4.2,15.4c0,6.5-1.4,11.6-4.2,15.4
						C165.9,46.5,162.1,48.4,157.3,48.4z M157.3,56c7.8,0,13.9-2.5,18.4-7.6c4.5-5.1,6.7-12.1,6.7-21.1c0-8.9-2.2-16-6.7-21.1
						c-4.5-5.1-10.6-7.6-18.4-7.6c-7.8,0-14,2.5-18.4,7.6c-4.4,5.1-6.7,12.1-6.7,21.1c0,9,2.2,16,6.7,21.1
						C143.3,53.5,149.4,56,157.3,56z"/>
				</g>
				<g>
					<path id="DejaVuSans-63" d="M236.6,52.6v-8.4c-2.5,1.4-5.1,2.5-7.6,3.2c-2.6,0.7-5.1,1-7.7,1c-5.8,0-10.4-1.8-13.6-5.5
						c-3.2-3.7-4.8-8.9-4.8-15.5s1.6-11.9,4.8-15.6c3.2-3.7,7.8-5.5,13.6-5.5c2.6,0,5.2,0.3,7.7,1c2.6,0.7,5.1,1.8,7.6,3.2V2.1
						c-2.5-1.2-5.1-2-7.8-2.6c-2.7-0.6-5.5-0.9-8.6-0.9c-8.2,0-14.8,2.6-19.6,7.8c-4.8,5.2-7.3,12.2-7.3,21c0,8.9,2.4,15.9,7.3,21
						c4.9,5.1,11.6,7.7,20.2,7.7c2.8,0,5.5-0.3,8.1-0.9C231.6,54.6,234.1,53.7,236.6,52.6z"/>
				</g>
				<g>
					<path id="DejaVuSans-68" d="M297.7,33V0h-9v32.7c0,5.2-1,9-3,11.6c-2,2.6-5,3.9-9.1,3.9c-4.9,0-8.7-1.5-11.5-4.6
						c-2.8-3.1-4.2-7.3-4.2-12.6V0h-9v76h9V46.2c2.2,3.3,4.7,5.8,7.6,7.4c2.9,1.6,6.3,2.4,10.1,2.4c6.3,0,11-1.9,14.2-5.8
						C296.1,46.3,297.7,40.6,297.7,33z"/>
				</g>
			</g>
		</g>
	</g>
	<g id="matplotlib.axis_2">
		<g id="ytick_1">
			<g id="line2d_6">
				<g>
					<g>
						<path id="m5aefe6f3ff" class="st34" d="M47.7,246h-3.5"/>
					</g>
				</g>
			</g>
			<g id="text_7">
				<g transform="translate(24.816875 249.839219) scale(0.1 -0.1)">
					<g>
						<path id="DejaVuSans-30_00000150792663997866366050000010542987353620929426_" d="M31.8,66.4c-5.1,0-8.9-2.5-11.5-7.5
							c-2.6-5-3.8-12.5-3.8-22.5c0-10,1.3-17.5,3.8-22.5c2.6-5,6.4-7.5,11.5-7.5c5.1,0,8.9,2.5,11.5,7.5c2.6,5,3.8,12.5,3.8,22.5
							c0,10-1.3,17.5-3.8,22.5C40.7,63.9,36.9,66.4,31.8,66.4z M31.8,74.2c8.2,0,14.4-3.2,18.7-9.7c4.3-6.5,6.5-15.8,6.5-28.1
							c0-12.3-2.2-21.6-6.5-28.1C46.2,1.8,40-1.4,31.8-1.4c-8.2,0-14.4,3.2-18.7,9.7c-4.3,6.5-6.5,15.8-6.5,28.1
							c0,12.3,2.2,21.7,6.5,28.1C17.4,71,23.6,74.2,31.8,74.2z"/>
					</g>
					<g>
						<path id="DejaVuSans-2e" d="M74.3,12.4h10.3V0H74.3V12.4z"/>
					</g>
					<g>
						<path id="DejaVuSans-30_00000012466610238143081890000004592732819044134314_" d="M127.2,66.4c-5.1,0-8.9-2.5-11.5-7.5
							c-2.6-5-3.8-12.5-3.8-22.5c0-10,1.3-17.5,3.8-22.5c2.6-5,6.4-7.5,11.5-7.5c5.1,0,8.9,2.5,11.5,7.5c2.6,5,3.8,12.5,3.8,22.5
							c0,10-1.3,17.5-3.8,22.5C136.1,63.9,132.3,66.4,127.2,66.4z M127.2,74.2c8.2,0,14.4-3.2,18.7-9.7c4.3-6.5,6.5-15.8,6.5-28.1
							c0-12.3-2.2-21.6-6.5-28.1c-4.3-6.5-10.6-9.7-18.7-9.7c-8.2,0-14.4,3.2-18.7,9.7c-4.3,6.5-6.5,15.8-6.5,28.1
							c0,12.3,2.2,21.7,6.5,28.1C112.8,71,119,74.2,127.2,74.2z"/>
					</g>
				</g>
			</g>
		</g>
		<g id="ytick_2">
			<g id="line2d_7">
				<g>
					<g>
						<path id="m5aefe6f3ff_00000133519161912569222620000002085823179862545035_" class="st34" d="M47.7,199.8h-3.5"/>
					</g>
				</g>
			</g>
			<g id="text_8">
				<g transform="translate(24.816875 203.583219) scale(0.1 -0.1)">
					<g>
						<path id="DejaVuSans-30_00000151509868662870823130000004292453178931538098_" d="M31.8,66.4c-5.1,0-8.9-2.5-11.5-7.5
							c-2.6-5-3.8-12.5-3.8-22.5c0-10,1.3-17.5,3.8-22.5c2.6-5,6.4-7.5,11.5-7.5c5.1,0,8.9,2.5,11.5,7.5c2.6,5,3.8,12.5,3.8,22.5
							c0,10-1.3,17.5-3.8,22.5C40.7,63.9,36.9,66.4,31.8,66.4z M31.8,74.2c8.2,0,14.4-3.2,18.7-9.7c4.3-6.5,6.5-15.8,6.5-28.1
							c0-12.3-2.2-21.6-6.5-28.1C46.2,1.8,40-1.4,31.8-1.4c-8.2,0-14.4,3.2-18.7,9.7c-4.3,6.5-6.5,15.8-6.5,28.1
							c0,12.3,2.2,21.7,6.5,28.1C17.4,71,23.6,74.2,31.8,74.2z"/>
					</g>
					<g>
						<path id="DejaVuSans-2e_00000112613897039167798760000016188428811793670583_" d="M74.3,12.4h10.3V0H74.3V12.4z"/>
					</g>
					<g>
						<path id="DejaVuSans-32_00000100371664856759406850000013234187024356749221_" d="M114.6,8.3H149V0h-46.3v8.3
							c3.7,3.9,8.8,9.1,15.3,15.6c6.5,6.5,10.5,10.7,12.2,12.6c3.2,3.5,5.4,6.5,6.6,9c1.3,2.5,1.9,4.9,1.9,7.2c0,3.9-1.4,7-4.1,9.5
							c-2.7,2.4-6.3,3.7-10.6,3.7c-3.1,0-6.4-0.5-9.8-1.6c-3.4-1.1-7.1-2.7-11-4.9v10c4,1.6,7.7,2.8,11.1,3.6
							c3.5,0.8,6.6,1.2,9.5,1.2c7.6,0,13.6-1.9,18.1-5.7c4.5-3.8,6.7-8.8,6.7-15.1c0-3-0.6-5.8-1.7-8.5c-1.1-2.7-3.2-5.8-6.1-9.5
							c-0.8-0.9-3.4-3.7-7.8-8.2C128.7,22.7,122.5,16.4,114.6,8.3z"/>
					</g>
				</g>
			</g>
		</g>
		<g id="ytick_3">
			<g id="line2d_8">
				<g>
					<g>
						<path id="m5aefe6f3ff_00000010291586076527073540000007238853779369447847_" class="st34" d="M47.7,153.5h-3.5"/>
					</g>
				</g>
			</g>
			<g id="text_9">
				<g transform="translate(24.816875 157.327219) scale(0.1 -0.1)">
					<g>
						<path id="DejaVuSans-30_00000165928549663922415480000003725580795084202164_" d="M31.8,66.4c-5.1,0-8.9-2.5-11.5-7.5
							c-2.6-5-3.8-12.5-3.8-22.5c0-10,1.3-17.5,3.8-22.5c2.6-5,6.4-7.5,11.5-7.5c5.1,0,8.9,2.5,11.5,7.5c2.6,5,3.8,12.5,3.8,22.5
							c0,10-1.3,17.5-3.8,22.5C40.7,63.9,36.9,66.4,31.8,66.4z M31.8,74.2c8.2,0,14.4-3.2,18.7-9.7c4.3-6.5,6.5-15.8,6.5-28.1
							c0-12.3-2.2-21.6-6.5-28.1C46.2,1.8,40-1.4,31.8-1.4c-8.2,0-14.4,3.2-18.7,9.7c-4.3,6.5-6.5,15.8-6.5,28.1
							c0,12.3,2.2,21.7,6.5,28.1C17.4,71,23.6,74.2,31.8,74.2z"/>
					</g>
					<g>
						<path id="DejaVuSans-2e_00000054952123737897557310000003602837202950753469_" d="M74.3,12.4h10.3V0H74.3V12.4z"/>
					</g>
					<g>
						<path id="DejaVuSans-34_00000084512495472278405180000012057089049345040536_" d="M133.2,64.3l-24.9-38.9h24.9V64.3z
							 M130.6,72.9H143V25.4h10.4v-8.2H143V0h-9.8v17.2h-32.9v9.5L130.6,72.9z"/>
					</g>
				</g>
			</g>
		</g>
		<g id="ytick_4">
			<g id="line2d_9">
				<g>
					<g>
						<path id="m5aefe6f3ff_00000036958843666870604500000011037289582502604222_" class="st34" d="M47.7,107.3h-3.5"/>
					</g>
				</g>
			</g>
			<g id="text_10">
				<g transform="translate(24.816875 111.071219) scale(0.1 -0.1)">
					<g>
						<path id="DejaVuSans-30_00000161631806161901229580000005083892193264560561_" d="M31.8,66.4c-5.1,0-8.9-2.5-11.5-7.5
							c-2.6-5-3.8-12.5-3.8-22.5c0-10,1.3-17.5,3.8-22.5c2.6-5,6.4-7.5,11.5-7.5c5.1,0,8.9,2.5,11.5,7.5c2.6,5,3.8,12.5,3.8,22.5
							c0,10-1.3,17.5-3.8,22.5C40.7,63.9,36.9,66.4,31.8,66.4z M31.8,74.2c8.2,0,14.4-3.2,18.7-9.7c4.3-6.5,6.5-15.8,6.5-28.1
							c0-12.3-2.2-21.6-6.5-28.1C46.2,1.8,40-1.4,31.8-1.4c-8.2,0-14.4,3.2-18.7,9.7c-4.3,6.5-6.5,15.8-6.5,28.1
							c0,12.3,2.2,21.7,6.5,28.1C17.4,71,23.6,74.2,31.8,74.2z"/>
					</g>
					<g>
						<path id="DejaVuSans-2e_00000131329103136464270670000000383537034380482713_" d="M74.3,12.4h10.3V0H74.3V12.4z"/>
					</g>
					<g>
						<path id="DejaVuSans-36_00000066505484630287735760000015970936747579178426_" d="M128.4,40.4c-4.4,0-7.9-1.5-10.5-4.5
							c-2.6-3-3.9-7.2-3.9-12.4c0-5.2,1.3-9.4,3.9-12.4c2.6-3,6.1-4.6,10.5-4.6c4.4,0,7.9,1.5,10.5,4.6c2.6,3.1,3.9,7.2,3.9,12.4
							c0,5.3-1.3,9.4-3.9,12.4C136.4,38.9,132.9,40.4,128.4,40.4z M148,71.3v-9c-2.5,1.2-5,2.1-7.5,2.7c-2.5,0.6-5,0.9-7.5,0.9
							c-6.5,0-11.5-2.2-14.9-6.6c-3.4-4.4-5.4-11-5.9-19.9c1.9,2.8,4.3,5,7.2,6.5c2.9,1.5,6.1,2.3,9.6,2.3c7.3,0,13.1-2.2,17.4-6.7
							c4.2-4.4,6.4-10.5,6.4-18.1c0-7.5-2.2-13.5-6.6-18c-4.4-4.5-10.3-6.8-17.7-6.8c-8.4,0-14.9,3.2-19.3,9.7
							c-4.5,6.5-6.7,15.8-6.7,28.1c0,11.5,2.7,20.7,8.2,27.6s12.8,10.3,22,10.3c2.5,0,5-0.2,7.5-0.7C142.6,73,145.3,72.3,148,71.3z"
							/>
					</g>
				</g>
			</g>
		</g>
		<g id="ytick_5">
			<g id="line2d_10">
				<g>
					<g>
						<path id="m5aefe6f3ff_00000020395801982156860230000010410349651246521733_" class="st34" d="M47.7,61h-3.5"/>
					</g>
				</g>
			</g>
			<g id="text_11">
				<g transform="translate(24.816875 64.815219) scale(0.1 -0.1)">
					<g>
						<path id="DejaVuSans-30_00000114047645913433197060000001239221620304718222_" d="M31.8,66.4c-5.1,0-8.9-2.5-11.5-7.5
							c-2.6-5-3.8-12.5-3.8-22.5c0-10,1.3-17.5,3.8-22.5c2.6-5,6.4-7.5,11.5-7.5c5.1,0,8.9,2.5,11.5,7.5c2.6,5,3.8,12.5,3.8,22.5
							c0,10-1.3,17.5-3.8,22.5C40.7,63.9,36.9,66.4,31.8,66.4z M31.8,74.2c8.2,0,14.4-3.2,18.7-9.7c4.3-6.5,6.5-15.8,6.5-28.1
							c0-12.3-2.2-21.6-6.5-28.1C46.2,1.8,40-1.4,31.8-1.4c-8.2,0-14.4,3.2-18.7,9.7c-4.3,6.5-6.5,15.8-6.5,28.1
							c0,12.3,2.2,21.7,6.5,28.1C17.4,71,23.6,74.2,31.8,74.2z"/>
					</g>
					<g>
						<path id="DejaVuSans-2e_00000116204545591179388870000007977389024419462077_" d="M74.3,12.4h10.3V0H74.3V12.4z"/>
					</g>
					<g>
						<path id="DejaVuSans-38_00000033345759657146275440000000206250875305863564_" d="M127.2,34.6c-4.7,0-8.4-1.3-11.1-3.8
							c-2.7-2.5-4-6-4-10.3c0-4.4,1.3-7.8,4-10.4c2.7-2.5,6.4-3.8,11.1-3.8c4.7,0,8.4,1.3,11.1,3.8c2.7,2.5,4.1,6,4.1,10.3
							c0,4.4-1.3,7.8-4,10.3C135.6,33.4,131.9,34.6,127.2,34.6z M117.3,38.8c-4.2,1-7.5,3-9.9,5.9c-2.4,2.9-3.5,6.4-3.5,10.6
							c0,5.8,2.1,10.4,6.2,13.8c4.2,3.4,9.8,5.1,17.1,5.1c7.3,0,13-1.7,17.1-5.1c4.1-3.4,6.2-8,6.2-13.8c0-4.2-1.2-7.7-3.5-10.6
							c-2.4-2.9-5.6-4.9-9.8-5.9c4.8-1.1,8.4-3.3,11.1-6.5c2.7-3.2,4-7.2,4-11.8c0-7.1-2.2-12.5-6.5-16.3
							c-4.3-3.8-10.5-5.7-18.5-5.7c-8,0-14.2,1.9-18.5,5.7c-4.3,3.8-6.5,9.2-6.5,16.3c0,4.6,1.3,8.6,4,11.8
							C108.9,35.5,112.6,37.7,117.3,38.8z M113.7,54.4c0-3.8,1.2-6.7,3.5-8.8c2.4-2.1,5.7-3.2,9.9-3.2c4.2,0,7.6,1.1,9.9,3.2
							c2.4,2.1,3.6,5.1,3.6,8.8c0,3.8-1.2,6.7-3.6,8.8c-2.4,2.1-5.7,3.2-9.9,3.2c-4.3,0-7.6-1.1-9.9-3.2
							C114.9,61.1,113.7,58.2,113.7,54.4z"/>
					</g>
				</g>
			</g>
		</g>
		<g id="ytick_6">
			<g id="line2d_11">
				<g>
					<g>
						<path id="m5aefe6f3ff_00000152956909355398317560000010317045613142069438_" class="st34" d="M47.7,14.8h-3.5"/>
					</g>
				</g>
			</g>
			<g id="text_12">
				<g transform="translate(24.816875 18.559219) scale(0.1 -0.1)">
					<g>
						<path id="DejaVuSans-31_00000042006942045862003550000004578367471795913349_" d="M12.4,8.3h16.1v55.6L11,60.4v9l17.4,3.5h9.9
							V8.3h16.1V0h-42V8.3z"/>
					</g>
					<g>
						<path id="DejaVuSans-2e_00000116914970693707350010000001582130530223571120_" d="M74.3,12.4h10.3V0H74.3V12.4z"/>
					</g>
					<g>
						<path id="DejaVuSans-30_00000024699212174055203490000007046384485044766897_" d="M127.2,66.4c-5.1,0-8.9-2.5-11.5-7.5
							c-2.6-5-3.8-12.5-3.8-22.5c0-10,1.3-17.5,3.8-22.5c2.6-5,6.4-7.5,11.5-7.5c5.1,0,8.9,2.5,11.5,7.5c2.6,5,3.8,12.5,3.8,22.5
							c0,10-1.3,17.5-3.8,22.5C136.1,63.9,132.3,66.4,127.2,66.4z M127.2,74.2c8.2,0,14.4-3.2,18.7-9.7c4.3-6.5,6.5-15.8,6.5-28.1
							c0-12.3-2.2-21.6-6.5-28.1c-4.3-6.5-10.6-9.7-18.7-9.7c-8.2,0-14.4,3.2-18.7,9.7c-4.3,6.5-6.5,15.8-6.5,28.1
							c0,12.3,2.2,21.7,6.5,28.1C112.8,71,119,74.2,127.2,74.2z"/>
					</g>
				</g>
			</g>
		</g>
		<g id="text_13">
			<g transform="translate(18.737187 201.564844) rotate(-90) scale(0.1 -0.1)">
				<g>
					<path id="DejaVuSans-50" d="M19.7,64.8V37.4h12.4c4.6,0,8.1,1.2,10.6,3.6c2.5,2.4,3.8,5.8,3.8,10.2c0,4.4-1.3,7.7-3.8,10.1
						c-2.5,2.4-6,3.6-10.6,3.6H19.7z M9.8,72.9h22.3c8.2,0,14.4-1.8,18.5-5.5c4.2-3.7,6.3-9.1,6.3-16.2c0-7.2-2.1-12.6-6.3-16.3
						c-4.2-3.7-10.4-5.5-18.5-5.5H19.7V0H9.8V72.9z"/>
				</g>
				<g>
					<path id="DejaVuSans-72" d="M99.7,46.3c-1,0.6-2.1,1-3.3,1.3c-1.2,0.3-2.5,0.4-3.9,0.4c-5.1,0-9-1.7-11.7-5s-4.1-8-4.1-14.2V0
						h-9v54.7h9v-8.5c1.9,3.3,4.4,5.8,7.4,7.4c3,1.6,6.7,2.4,11,2.4c0.6,0,1.3,0,2-0.1c0.8-0.1,1.6-0.2,2.5-0.4L99.7,46.3z"/>
				</g>
				<g>
					<path id="DejaVuSans-6f_00000041995248396564433730000003535304193341974414_" d="M128,48.4c-4.8,0-8.6-1.9-11.4-5.6
						c-2.8-3.8-4.2-8.9-4.2-15.5s1.4-11.7,4.2-15.5c2.8-3.8,6.6-5.6,11.5-5.6c4.8,0,8.6,1.9,11.4,5.7c2.8,3.8,4.2,8.9,4.2,15.4
						c0,6.5-1.4,11.6-4.2,15.4C136.6,46.5,132.8,48.4,128,48.4z M128,56c7.8,0,13.9-2.5,18.4-7.6c4.5-5.1,6.7-12.1,6.7-21.1
						c0-8.9-2.2-16-6.7-21.1C142,1.1,135.8-1.4,128-1.4c-7.8,0-14,2.5-18.4,7.6c-4.4,5.1-6.7,12.1-6.7,21.1c0,9,2.2,16,6.7,21.1
						C114,53.5,120.2,56,128,56z"/>
				</g>
				<g>
					<path id="DejaVuSans-62" d="M207.3,27.3c0,6.6-1.4,11.8-4.1,15.5s-6.5,5.6-11.2,5.6c-4.8,0-8.5-1.9-11.2-5.6s-4.1-8.9-4.1-15.5
						s1.4-11.8,4.1-15.5s6.5-5.6,11.2-5.6c4.8,0,8.5,1.9,11.2,5.6S207.3,20.7,207.3,27.3z M176.7,46.4c1.9,3.2,4.3,5.7,7.2,7.2
						c2.9,1.6,6.3,2.4,10.3,2.4c6.6,0,12-2.6,16.2-7.9c4.2-5.3,6.2-12.2,6.2-20.8s-2.1-15.5-6.2-20.8c-4.1-5.3-9.5-7.9-16.2-7.9
						c-4,0-7.4,0.8-10.3,2.4c-2.9,1.6-5.3,4-7.2,7.3V0h-9v76h9V46.4z"/>
				</g>
				<g>
					<path id="DejaVuSans-61" d="M256.4,27.5c-7.3,0-12.3-0.8-15.1-2.5c-2.8-1.7-4.2-4.5-4.2-8.5c0-3.2,1.1-5.7,3.2-7.6
						c2.1-1.9,5-2.8,8.6-2.8c5,0,9,1.8,12,5.3c3,3.5,4.5,8.2,4.5,14.1v2H256.4z M274.3,31.2V0h-9v8.3c-2.1-3.3-4.6-5.8-7.7-7.3
						s-6.8-2.4-11.2-2.4c-5.6,0-10,1.6-13.4,4.7c-3.3,3.1-5,7.4-5,12.6c0,6.1,2.1,10.8,6.2,13.9c4.1,3.1,10.3,4.7,18.4,4.7h12.6v0.9
						c0,4.1-1.4,7.3-4.1,9.6s-6.5,3.4-11.5,3.4c-3.1,0-6.2-0.4-9.1-1.1c-3-0.8-5.8-1.9-8.5-3.4v8.3c3.3,1.3,6.5,2.2,9.6,2.8
						c3.1,0.6,6.1,1,9,1c7.9,0,13.8-2.1,17.7-6.2C272.3,45.7,274.3,39.5,274.3,31.2z"/>
				</g>
				<g>
					<path id="DejaVuSans-62_00000034072264149346202820000011052185664836554632_" d="M332,27.3c0,6.6-1.4,11.8-4.1,15.5
						s-6.5,5.6-11.2,5.6c-4.8,0-8.5-1.9-11.2-5.6s-4.1-8.9-4.1-15.5s1.4-11.8,4.1-15.5s6.5-5.6,11.2-5.6c4.8,0,8.5,1.9,11.2,5.6
						S332,20.7,332,27.3z M301.5,46.4c1.9,3.2,4.3,5.7,7.2,7.2c2.9,1.6,6.3,2.4,10.3,2.4c6.6,0,12-2.6,16.2-7.9
						c4.2-5.3,6.2-12.2,6.2-20.8s-2.1-15.5-6.2-20.8c-4.1-5.3-9.5-7.9-16.2-7.9c-4,0-7.4,0.8-10.3,2.4c-2.9,1.6-5.3,4-7.2,7.3V0h-9
						v76h9V46.4z"/>
				</g>
				<g>
					<path id="DejaVuSans-69" d="M356.3,54.7h9V0h-9V54.7z M356.3,76h9V64.6h-9V76z"/>
				</g>
				<g>
					<path id="DejaVuSans-6c" d="M384,76h9V0h-9V76z"/>
				</g>
				<g>
					<path id="DejaVuSans-69_00000168833056642343786530000010119929350143073181_" d="M411.8,54.7h9V0h-9V54.7z M411.8,76h9V64.6
						h-9V76z"/>
				</g>
				<g>
					<path id="DejaVuSans-74" d="M448.5,70.2V54.7H467v-7h-18.5V18c0-4.5,0.6-7.3,1.8-8.6s3.7-1.9,7.5-1.9h9.2V0h-9.2
						c-6.9,0-11.7,1.3-14.4,3.9c-2.6,2.6-4,7.3-4,14.1v29.7h-6.6v7h6.6v15.5H448.5z"/>
				</g>
				<g>
					<path id="DejaVuSans-79" d="M501.6-5.1c-2.5-6.5-5-10.8-7.4-12.7c-2.4-2-5.6-3-9.7-3h-7.2v7.5h5.3c2.5,0,4.4,0.6,5.8,1.8
						c1.4,1.2,2.9,3.9,4.5,8.3l1.6,4.1l-22.1,53.8h9.5L499,11.9l17.1,42.8h9.5L501.6-5.1z"/>
				</g>
				<g>
					<path id="DejaVuSans-20" d="M528.6,0"/>
				</g>
				<g>
					<path id="DejaVuSans-6f_00000014602454153843692920000004123683701959706764_" d="M591,48.4c-4.8,0-8.6-1.9-11.4-5.6
						c-2.8-3.8-4.2-8.9-4.2-15.5s1.4-11.7,4.2-15.5c2.8-3.8,6.6-5.6,11.5-5.6c4.8,0,8.6,1.9,11.4,5.7c2.8,3.8,4.2,8.9,4.2,15.4
						c0,6.5-1.4,11.6-4.2,15.4C599.5,46.5,595.8,48.4,591,48.4z M591,56c7.8,0,13.9-2.5,18.4-7.6c4.5-5.1,6.7-12.1,6.7-21.1
						c0-8.9-2.2-16-6.7-21.1c-4.5-5.1-10.6-7.6-18.4-7.6c-7.8,0-14,2.5-18.4,7.6c-4.4,5.1-6.7,12.1-6.7,21.1c0,9,2.2,16,6.7,21.1
						C577,53.5,583.1,56,591,56z"/>
				</g>
				<g>
					<path id="DejaVuSans-66" d="M658.6,76v-7.5h-8.6c-3.2,0-5.5-0.7-6.7-2c-1.2-1.3-1.9-3.6-1.9-7v-4.8h14.8v-7h-14.8V0h-9v47.7
						h-8.6v7h8.6v3.8c0,6.1,1.4,10.5,4.2,13.3c2.8,2.8,7.3,4.2,13.5,4.2H658.6z"/>
				</g>
				<g>
					<path id="DejaVuSans-20_00000017484905792468579760000003271657228863488691_" d="M656.7,0"/>
				</g>
				<g>
					<path id="DejaVuSans-68_00000024679967803360425500000009959470686770705056_" d="M743.4,33V0h-9v32.7c0,5.2-1,9-3,11.6
						c-2,2.6-5,3.9-9.1,3.9c-4.9,0-8.7-1.5-11.5-4.6c-2.8-3.1-4.2-7.3-4.2-12.6V0h-9v76h9V46.2c2.2,3.3,4.7,5.8,7.6,7.4
						c2.9,1.6,6.3,2.4,10.1,2.4c6.3,0,11-1.9,14.2-5.8C741.8,46.3,743.4,40.6,743.4,33z"/>
				</g>
				<g>
					<path id="DejaVuSans-61_00000002371027401003994330000002878123596718698643_" d="M786.2,27.5c-7.3,0-12.3-0.8-15.1-2.5
						c-2.8-1.7-4.2-4.5-4.2-8.5c0-3.2,1.1-5.7,3.2-7.6c2.1-1.9,5-2.8,8.6-2.8c5,0,9,1.8,12,5.3c3,3.5,4.5,8.2,4.5,14.1v2H786.2z
						 M804.1,31.2V0h-9v8.3c-2.1-3.3-4.6-5.8-7.7-7.3s-6.8-2.4-11.2-2.4c-5.6,0-10,1.6-13.4,4.7c-3.3,3.1-5,7.4-5,12.6
						c0,6.1,2.1,10.8,6.2,13.9c4.1,3.1,10.3,4.7,18.4,4.7h12.6v0.9c0,4.1-1.4,7.3-4.1,9.6s-6.5,3.4-11.5,3.4c-3.1,0-6.2-0.4-9.1-1.1
						c-3-0.8-5.8-1.9-8.5-3.4v8.3c3.3,1.3,6.5,2.2,9.6,2.8c3.1,0.6,6.1,1,9,1c7.9,0,13.8-2.1,17.7-6.2
						C802.2,45.7,804.1,39.5,804.1,31.2z"/>
				</g>
				<g>
					<path id="DejaVuSans-76" d="M816.2,54.7h9.5l17.1-45.9l17.1,45.9h9.5L848.9,0h-12.2L816.2,54.7z"/>
				</g>
				<g>
					<path id="DejaVuSans-69_00000068648193329051266000000002280588061496080796_" d="M881.8,54.7h9V0h-9V54.7z M881.8,76h9V64.6
						h-9V76z"/>
				</g>
				<g>
					<path id="DejaVuSans-6e" d="M955,33V0h-9v32.7c0,5.2-1,9-3,11.6c-2,2.6-5,3.9-9.1,3.9c-4.9,0-8.7-1.5-11.5-4.6
						c-2.8-3.1-4.2-7.3-4.2-12.6V0h-9v54.7h9v-8.5c2.2,3.3,4.7,5.8,7.6,7.4c2.9,1.6,6.3,2.4,10.1,2.4c6.3,0,11-1.9,14.2-5.8
						C953.4,46.3,955,40.6,955,33z"/>
				</g>
				<g>
					<path id="DejaVuSans-67" d="M1008.9,28c0,6.5-1.3,11.6-4,15.1c-2.7,3.6-6.4,5.4-11.3,5.4c-4.8,0-8.6-1.8-11.2-5.4
						c-2.7-3.6-4-8.6-4-15.1c0-6.5,1.3-11.5,4-15.1s6.4-5.4,11.2-5.4c4.9,0,8.6,1.8,11.3,5.4C1007.6,16.5,1008.9,21.5,1008.9,28z
						 M1017.9,6.8c0-9.3-2.1-16.2-6.2-20.8c-4.1-4.5-10.5-6.8-19-6.8c-3.2,0-6.1,0.2-8.9,0.7c-2.8,0.5-5.5,1.2-8.2,2.2v8.7
						c2.6-1.4,5.2-2.5,7.8-3.2c2.6-0.7,5.2-1,7.9-1c5.9,0,10.3,1.5,13.2,4.6c2.9,3.1,4.4,7.7,4.4,13.9v4.5c-1.9-3.2-4.2-5.6-7.1-7.2
						c-2.9-1.6-6.4-2.4-10.4-2.4c-6.7,0-12.1,2.6-16.2,7.7c-4.1,5.1-6.2,11.9-6.2,20.3c0,8.5,2.1,15.2,6.2,20.3
						c4.1,5.1,9.5,7.7,16.2,7.7c4,0,7.5-0.8,10.4-2.4c2.9-1.6,5.3-4,7.1-7.2v8.3h9V6.8z"/>
				</g>
				<g>
					<path id="DejaVuSans-20_00000001658193335941589440000014030400280702427319_" d="M1027,0"/>
				</g>
				<g>
					<path id="DejaVuSans-63_00000025417890471553553770000012458587272719306887_" d="M1107.6,52.6v-8.4c-2.5,1.4-5.1,2.5-7.6,3.2
						s-5.1,1-7.7,1c-5.8,0-10.4-1.8-13.6-5.5c-3.2-3.7-4.8-8.9-4.8-15.5s1.6-11.9,4.8-15.6c3.2-3.7,7.8-5.5,13.6-5.5
						c2.6,0,5.2,0.3,7.7,1s5.1,1.8,7.6,3.2V2.1c-2.5-1.2-5.1-2-7.8-2.6c-2.7-0.6-5.5-0.9-8.6-0.9c-8.2,0-14.8,2.6-19.6,7.8
						c-4.8,5.2-7.3,12.2-7.3,21c0,8.9,2.4,15.9,7.3,21c4.9,5.1,11.6,7.7,20.2,7.7c2.8,0,5.5-0.3,8.1-0.9
						C1102.5,54.6,1105.1,53.7,1107.6,52.6z"/>
				</g>
				<g>
					<path id="DejaVuSans-6f_00000085214240491911941690000001733776886241450394_" d="M1144.4,48.4c-4.8,0-8.6-1.9-11.4-5.6
						s-4.2-8.9-4.2-15.5s1.4-11.7,4.2-15.5c2.8-3.8,6.6-5.6,11.5-5.6c4.8,0,8.6,1.9,11.4,5.7c2.8,3.8,4.2,8.9,4.2,15.4
						c0,6.5-1.4,11.6-4.2,15.4C1153,46.5,1149.2,48.4,1144.4,48.4z M1144.4,56c7.8,0,13.9-2.5,18.4-7.6c4.5-5.1,6.7-12.1,6.7-21.1
						c0-8.9-2.2-16-6.7-21.1c-4.5-5.1-10.6-7.6-18.4-7.6c-7.8,0-14,2.5-18.4,7.6c-4.4,5.1-6.7,12.1-6.7,21.1c0,9,2.2,16,6.7,21.1
						C1130.4,53.5,1136.5,56,1144.4,56z"/>
				</g>
				<g>
					<path id="DejaVuSans-6e_00000126324080300844517950000000564803142610011787_" d="M1229.8,33V0h-9v32.7c0,5.2-1,9-3,11.6
						c-2,2.6-5,3.9-9.1,3.9c-4.9,0-8.7-1.5-11.5-4.6c-2.8-3.1-4.2-7.3-4.2-12.6V0h-9v54.7h9v-8.5c2.2,3.3,4.7,5.8,7.6,7.4
						c2.9,1.6,6.3,2.4,10.1,2.4c6.3,0,11-1.9,14.2-5.8C1228.2,46.3,1229.8,40.6,1229.8,33z"/>
				</g>
				<g>
					<path id="DejaVuSans-66_00000149366529591289892870000004963765401785233599_" d="M1275.4,76v-7.5h-8.6c-3.2,0-5.5-0.7-6.7-2
						c-1.2-1.3-1.9-3.6-1.9-7v-4.8h14.8v-7h-14.8V0h-9v47.7h-8.6v7h8.6v3.8c0,6.1,1.4,10.5,4.2,13.3c2.8,2.8,7.3,4.2,13.5,4.2
						H1275.4z"/>
				</g>
				<g>
					<path id="DejaVuSans-6c_00000153686844558488745610000013317755865768541356_" d="M1283,76h9V0h-9V76z"/>
				</g>
				<g>
					<path id="DejaVuSans-69_00000049213404553281715510000006948274029586549683_" d="M1310.7,54.7h9V0h-9V54.7z M1310.7,76h9V64.6
						h-9V76z"/>
				</g>
				<g>
					<path id="DejaVuSans-63_00000013903296369894978760000004970494755531437190_" d="M1377.9,52.6v-8.4c-2.5,1.4-5.1,2.5-7.6,3.2
						c-2.6,0.7-5.1,1-7.7,1c-5.8,0-10.4-1.8-13.6-5.5c-3.2-3.7-4.8-8.9-4.8-15.5s1.6-11.9,4.8-15.6c3.2-3.7,7.8-5.5,13.6-5.5
						c2.6,0,5.2,0.3,7.7,1c2.6,0.7,5.1,1.8,7.6,3.2V2.1c-2.5-1.2-5.1-2-7.8-2.6c-2.7-0.6-5.5-0.9-8.6-0.9c-8.2,0-14.8,2.6-19.6,7.8
						c-4.8,5.2-7.3,12.2-7.3,21c0,8.9,2.4,15.9,7.3,21c4.9,5.1,11.6,7.7,20.2,7.7c2.8,0,5.5-0.3,8.1-0.9
						C1372.9,54.6,1375.4,53.7,1377.9,52.6z"/>
				</g>
				<g>
					<path id="DejaVuSans-74_00000013878968274914763600000004437862640986358916_" d="M1402.4,70.2V54.7h18.5v-7h-18.5V18
						c0-4.5,0.6-7.3,1.8-8.6s3.7-1.9,7.5-1.9h9.2V0h-9.2c-6.9,0-11.7,1.3-14.4,3.9c-2.6,2.6-4,7.3-4,14.1v29.7h-6.6v7h6.6v15.5
						H1402.4z"/>
				</g>
			</g>
		</g>
	</g>
	<g id="line2d_12">
		<g>
			<defs>
				<rect id="SVGID_00000134216562533001314720000014675538079157201031_" x="47.7" y="14.8" width="229.5" height="231.3"/>
			</defs>
			<clipPath id="SVGID_00000072975552832622772190000017288390261595556992_">
				<use xlink:href="#SVGID_00000134216562533001314720000014675538079157201031_"  style="overflow:visible;"/>
			</clipPath>
			
				<path style="clip-path:url(#SVGID_00000072975552832622772190000017288390261595556992_);fill:none;stroke:#1F77B4;stroke-width:1.5;stroke-linecap:square;stroke-linejoin:round;" d="
				M58.2,128.1l23.2,3.8l23.2,2l23.2-2.2l23.2,4.6l23.2-3.9l23.2,2.5l23.2-1l23.2,4.3l23.2-4.9"/>
		</g>
	</g>
	<g id="line2d_13">
		<g>
			<defs>
				<rect id="SVGID_00000127757122176374299420000015223802987325271168_" x="47.7" y="14.8" width="229.5" height="231.3"/>
			</defs>
			<clipPath id="SVGID_00000081614801011464978630000007583683461457681811_">
				<use xlink:href="#SVGID_00000127757122176374299420000015223802987325271168_"  style="overflow:visible;"/>
			</clipPath>
			
				<path style="clip-path:url(#SVGID_00000081614801011464978630000007583683461457681811_);fill:none;stroke:#FF7F0E;stroke-width:1.5;stroke-linecap:square;stroke-linejoin:round;" d="
				M58.2,134.2l23.2-0.6l23.2,1.6l23.2,0.3l23.2,2.7L174,134l23.2-0.1l23.2,0.9l23.2-1.1l23.2,4.2"/>
		</g>
	</g>
	<g>
		<defs>
			<rect id="SVGID_00000176014786458157936570000001414745171555471021_" x="47.7" y="14.8" width="229.5" height="231.3"/>
		</defs>
		<clipPath id="SVGID_00000075847240922834689960000002350633730698607294_">
			<use xlink:href="#SVGID_00000176014786458157936570000001414745171555471021_"  style="overflow:visible;"/>
		</clipPath>
		
			<path style="clip-path:url(#SVGID_00000075847240922834689960000002350633730698607294_);fill:none;stroke:#2CA02C;stroke-width:1.5;stroke-linecap:square;stroke-linejoin:round;" d="
			M58.2,134l23.2-1.9l23.2-3.4l23.2,3.9l23.2-1.2l23.2,0.5l23.2,0.6l23.2,0.2l23.2,0.3l23.2-2.2"/>
	</g>
	<g id="line2d_15">
	</g>
	<g id="line2d_16">
	</g>
	<g id="line2d_17">
	</g>
	<g id="line2d_18">
	</g>
	<g id="line2d_19">
	</g>
	<g id="line2d_20">
	</g>
	<g id="patch_3">
		<path class="st38" d="M47.7,246V14.8"/>
	</g>
	<g id="patch_4">
		<path class="st38" d="M277.2,246V14.8"/>
	</g>
	<g id="patch_5">
		<path class="st38" d="M47.7,246h229.5"/>
	</g>
	<g id="patch_6">
		<path class="st38" d="M47.7,14.8h229.5"/>
	</g>
	<g id="line2d_21">
		<path class="st39" d="M195.8,42.5h10h10"/>
	</g>
	<g id="text_15">
		<g transform="translate(223.840625 46.036563) scale(0.1 -0.1)">
			<g>
				<path id="DejaVuSans-53" d="M53.5,70.5v-9.6c-3.7,1.8-7.3,3.1-10.6,4c-3.3,0.9-6.5,1.3-9.6,1.3c-5.4,0-9.5-1-12.4-3.1
					s-4.4-5-4.4-8.9c0-3.2,1-5.7,2.9-7.3c1.9-1.6,5.6-3,11-4l6-1.2c7.4-1.4,12.8-3.9,16.3-7.4s5.2-8.3,5.2-14.2
					c0-7.1-2.4-12.4-7.1-16.1C46.1,0.4,39.1-1.4,30-1.4c-3.4,0-7.1,0.4-11,1.2c-3.9,0.8-7.9,1.9-12.1,3.5v10.2
					c4-2.2,7.9-3.9,11.8-5.1c3.8-1.1,7.6-1.7,11.3-1.7c5.6,0,10,1.1,13,3.3c3.1,2.2,4.6,5.4,4.6,9.5c0,3.6-1.1,6.4-3.3,8.4
					s-5.8,3.5-10.8,4.5l-6,1.2c-7.4,1.5-12.7,3.8-16,6.9c-3.3,3.1-4.9,7.5-4.9,13c0,6.4,2.3,11.5,6.8,15.2s10.8,5.6,18.8,5.6
					c3.4,0,6.9-0.3,10.5-0.9C46.2,72.7,49.8,71.7,53.5,70.5z"/>
			</g>
			<g>
				<path id="DejaVuSans-53_00000084509250703685576330000004272262546047251122_" d="M117,70.5v-9.6c-3.7,1.8-7.3,3.1-10.6,4
					c-3.3,0.9-6.5,1.3-9.6,1.3c-5.4,0-9.5-1-12.4-3.1S80,58,80,54.2c0-3.2,1-5.7,2.9-7.3c1.9-1.6,5.6-3,11-4l6-1.2
					c7.4-1.4,12.8-3.9,16.3-7.4s5.2-8.3,5.2-14.2c0-7.1-2.4-12.4-7.1-16.1c-4.7-3.6-11.7-5.5-20.8-5.5c-3.4,0-7.1,0.4-11,1.2
					c-3.9,0.8-7.9,1.9-12.1,3.5v10.2c4-2.2,7.9-3.9,11.8-5.1c3.8-1.1,7.6-1.7,11.3-1.7c5.6,0,10,1.1,13,3.3c3.1,2.2,4.6,5.4,4.6,9.5
					c0,3.6-1.1,6.4-3.3,8.4c-2.2,2-5.8,3.5-10.8,4.5l-6,1.2c-7.4,1.5-12.7,3.8-16,6.9c-3.3,3.1-4.9,7.5-4.9,13
					c0,6.4,2.3,11.5,6.8,15.2s10.8,5.6,18.8,5.6c3.4,0,6.9-0.3,10.5-0.9C109.7,72.7,113.3,71.7,117,70.5z"/>
			</g>
			<g>
				<path id="DejaVuSans-54" d="M126.7,72.9h61.7v-8.3h-25.9V0h-9.9v64.6h-25.9V72.9z"/>
			</g>
			<g>
				<path id="DejaVuSans-2d" d="M183.8,31.4h26.3v-8h-26.3V31.4z"/>
			</g>
			<g>
				<path id="DejaVuSans-50_00000038371636702845265390000001387258333751710873_" d="M234.7,64.8V37.4h12.4c4.6,0,8.1,1.2,10.6,3.6
					c2.5,2.4,3.8,5.8,3.8,10.2c0,4.4-1.3,7.7-3.8,10.1c-2.5,2.4-6,3.6-10.6,3.6H234.7z M224.8,72.9h22.3c8.2,0,14.4-1.8,18.5-5.5
					c4.2-3.7,6.3-9.1,6.3-16.2c0-7.2-2.1-12.6-6.3-16.3c-4.2-3.7-10.4-5.5-18.5-5.5h-12.4V0h-9.9V72.9z"/>
			</g>
			<g>
				<path id="DejaVuSans-61_00000106825403939573451910000013845023309967771009_" d="M305.1,27.5c-7.3,0-12.3-0.8-15.1-2.5
					s-4.2-4.5-4.2-8.5c0-3.2,1.1-5.7,3.2-7.6c2.1-1.9,5-2.8,8.6-2.8c5,0,9,1.8,12,5.3c3,3.5,4.5,8.2,4.5,14.1v2H305.1z M323,31.2V0
					h-9v8.3C312,5,309.4,2.5,306.3,1s-6.8-2.4-11.2-2.4c-5.6,0-10,1.6-13.4,4.7c-3.3,3.1-5,7.4-5,12.6c0,6.1,2.1,10.8,6.2,13.9
					c4.1,3.1,10.3,4.7,18.4,4.7H314v0.9c0,4.1-1.4,7.3-4.1,9.6c-2.7,2.3-6.5,3.4-11.5,3.4c-3.1,0-6.2-0.4-9.1-1.1
					c-3-0.8-5.8-1.9-8.5-3.4v8.3c3.3,1.3,6.5,2.2,9.6,2.8c3.1,0.6,6.1,1,9,1c7.9,0,13.8-2.1,17.7-6.2C321,45.8,323,39.5,323,31.2z"
					/>
			</g>
			<g>
				<path id="DejaVuSans-72_00000067236849964960520450000004215053881513315981_" d="M373.2,46.3c-1,0.6-2.1,1-3.3,1.3
					c-1.2,0.3-2.5,0.4-3.9,0.4c-5.1,0-9-1.7-11.7-5c-2.7-3.3-4.1-8-4.1-14.2V0h-9v54.7h9v-8.5c1.9,3.3,4.4,5.8,7.4,7.4
					c3,1.6,6.7,2.4,11,2.4c0.6,0,1.3,0,2-0.1c0.8-0.1,1.6-0.2,2.5-0.4L373.2,46.3z"/>
			</g>
			<g>
				<path id="DejaVuSans-61_00000023978556010173771640000003936803852527877534_" d="M407.5,27.5c-7.3,0-12.3-0.8-15.1-2.5
					s-4.2-4.5-4.2-8.5c0-3.2,1.1-5.7,3.2-7.6c2.1-1.9,5-2.8,8.6-2.8c5,0,9,1.8,12,5.3c3,3.5,4.5,8.2,4.5,14.1v2H407.5z M425.4,31.2
					V0h-9v8.3c-2.1-3.3-4.6-5.8-7.7-7.3s-6.8-2.4-11.2-2.4c-5.6,0-10,1.6-13.4,4.7c-3.3,3.1-5,7.4-5,12.6c0,6.1,2.1,10.8,6.2,13.9
					c4.1,3.1,10.3,4.7,18.4,4.7h12.6v0.9c0,4.1-1.4,7.3-4.1,9.6c-2.7,2.3-6.5,3.4-11.5,3.4c-3.1,0-6.2-0.4-9.1-1.1
					c-3-0.8-5.8-1.9-8.5-3.4v8.3c3.3,1.3,6.5,2.2,9.6,2.8c3.1,0.6,6.1,1,9,1c7.9,0,13.8-2.1,17.7-6.2
					C423.4,45.8,425.4,39.5,425.4,31.2z"/>
			</g>
		</g>
	</g>
	<g id="line2d_22">
		<path class="st40" d="M195.8,57.2h10h10"/>
	</g>
	<g id="text_16">
		<g transform="translate(223.840625 60.714687) scale(0.1 -0.1)">
			<g>
				<path id="DejaVuSans-53_00000176035638040305951610000018341084216719282342_" d="M53.5,70.5v-9.6c-3.7,1.8-7.3,3.1-10.6,4
					c-3.3,0.9-6.5,1.3-9.6,1.3c-5.4,0-9.5-1-12.4-3.1c-2.9-2.1-4.4-5-4.4-8.9c0-3.2,1-5.7,2.9-7.3c1.9-1.6,5.6-3,11-4l6-1.2
					c7.4-1.4,12.8-3.9,16.3-7.4s5.2-8.3,5.2-14.2c0-7.1-2.4-12.4-7.1-16.1C46.1,0.4,39.1-1.4,30-1.4c-3.4,0-7.1,0.4-11,1.2
					c-3.9,0.8-7.9,1.9-12.1,3.5v10.2c4-2.2,7.9-3.9,11.8-5.1c3.8-1.1,7.6-1.7,11.3-1.7c5.6,0,10,1.1,13,3.3c3.1,2.2,4.6,5.4,4.6,9.5
					c0,3.6-1.1,6.4-3.3,8.4s-5.8,3.5-10.8,4.5l-6,1.2c-7.4,1.5-12.7,3.8-16,6.9c-3.3,3.1-4.9,7.5-4.9,13c0,6.4,2.3,11.5,6.8,15.2
					s10.8,5.6,18.8,5.6c3.4,0,6.9-0.3,10.5-0.9C46.2,72.7,49.8,71.7,53.5,70.5z"/>
			</g>
			<g>
				<path id="DejaVuSans-53_00000021085120526626584070000008102643103551283629_" d="M117,70.5v-9.6c-3.7,1.8-7.3,3.1-10.6,4
					c-3.3,0.9-6.5,1.3-9.6,1.3c-5.4,0-9.5-1-12.4-3.1C81.4,61,80,58,80,54.2c0-3.2,1-5.7,2.9-7.3c1.9-1.6,5.6-3,11-4l6-1.2
					c7.4-1.4,12.8-3.9,16.3-7.4s5.2-8.3,5.2-14.2c0-7.1-2.4-12.4-7.1-16.1c-4.7-3.6-11.7-5.5-20.8-5.5c-3.4,0-7.1,0.4-11,1.2
					c-3.9,0.8-7.9,1.9-12.1,3.5v10.2c4-2.2,7.9-3.9,11.8-5.1c3.8-1.1,7.6-1.7,11.3-1.7c5.6,0,10,1.1,13,3.3c3.1,2.2,4.6,5.4,4.6,9.5
					c0,3.6-1.1,6.4-3.3,8.4c-2.2,2-5.8,3.5-10.8,4.5l-6,1.2c-7.4,1.5-12.7,3.8-16,6.9c-3.3,3.1-4.9,7.5-4.9,13
					c0,6.4,2.3,11.5,6.8,15.2s10.8,5.6,18.8,5.6c3.4,0,6.9-0.3,10.5-0.9C109.7,72.7,113.3,71.7,117,70.5z"/>
			</g>
			<g>
				<path id="DejaVuSans-54_00000031921922711452874250000006920909684767447186_" d="M126.7,72.9h61.7v-8.3h-25.9V0h-9.9v64.6
					h-25.9V72.9z"/>
			</g>
			<g>
				<path id="DejaVuSans-2d_00000150808591240719868310000014940195134788874403_" d="M183.8,31.4h26.3v-8h-26.3V31.4z"/>
			</g>
			<g>
				<path id="DejaVuSans-53_00000061441170048500599730000018058486414918549138_" d="M268.5,70.5v-9.6c-3.7,1.8-7.3,3.1-10.6,4
					c-3.3,0.9-6.5,1.3-9.6,1.3c-5.4,0-9.5-1-12.4-3.1c-2.9-2.1-4.4-5-4.4-8.9c0-3.2,1-5.7,2.9-7.3c1.9-1.6,5.6-3,11-4l6-1.2
					c7.4-1.4,12.8-3.9,16.3-7.4s5.2-8.3,5.2-14.2c0-7.1-2.4-12.4-7.1-16.1c-4.7-3.6-11.7-5.5-20.8-5.5c-3.4,0-7.1,0.4-11,1.2
					c-3.9,0.8-7.9,1.9-12.1,3.5v10.2c4-2.2,7.9-3.9,11.8-5.1c3.8-1.1,7.6-1.7,11.3-1.7c5.6,0,10,1.1,13,3.3c3.1,2.2,4.6,5.4,4.6,9.5
					c0,3.6-1.1,6.4-3.3,8.4s-5.8,3.5-10.8,4.5l-6,1.2c-7.4,1.5-12.7,3.8-16,6.9c-3.3,3.1-4.9,7.5-4.9,13c0,6.4,2.3,11.5,6.8,15.2
					s10.8,5.6,18.8,5.6c3.4,0,6.9-0.3,10.5-0.9C261.2,72.7,264.8,71.7,268.5,70.5z"/>
			</g>
			<g>
				<path id="DejaVuSans-54_00000148650471587699366290000016213591848893374394_" d="M278.2,72.9h61.7v-8.3H314V0h-9.9v64.6h-25.9
					V72.9z"/>
			</g>
			<g>
				<path id="DejaVuSans-53_00000122700788693196257100000012710491985595729562_" d="M393.1,70.5v-9.6c-3.7,1.8-7.3,3.1-10.6,4
					c-3.3,0.9-6.5,1.3-9.6,1.3c-5.4,0-9.5-1-12.4-3.1c-2.9-2.1-4.4-5-4.4-8.9c0-3.2,1-5.7,2.9-7.3c1.9-1.6,5.6-3,11-4l6-1.2
					c7.4-1.4,12.8-3.9,16.3-7.4s5.2-8.3,5.2-14.2c0-7.1-2.4-12.4-7.1-16.1c-4.7-3.6-11.7-5.5-20.8-5.5c-3.4,0-7.1,0.4-11,1.2
					c-3.9,0.8-7.9,1.9-12.1,3.5v10.2c4-2.2,7.9-3.9,11.8-5.1c3.8-1.1,7.6-1.7,11.3-1.7c5.6,0,10,1.1,13,3.3c3.1,2.2,4.6,5.4,4.6,9.5
					c0,3.6-1.1,6.4-3.3,8.4c-2.2,2-5.8,3.5-10.8,4.5l-6,1.2c-7.4,1.5-12.7,3.8-16,6.9c-3.3,3.1-4.9,7.5-4.9,13
					c0,6.4,2.3,11.5,6.8,15.2s10.8,5.6,18.8,5.6c3.4,0,6.9-0.3,10.5-0.9C385.7,72.7,389.4,71.7,393.1,70.5z"/>
			</g>
		</g>
	</g>
	<g id="line2d_23">
		<path class="st41" d="M195.8,71.9h10h10"/>
	</g>
	<g id="text_17">
		<g transform="translate(223.840625 75.392812) scale(0.1 -0.1)">
			<g>
				<path id="DejaVuSans-50_00000087406584993934465130000000786145037186036895_" d="M19.7,64.8V37.4h12.4c4.6,0,8.1,1.2,10.6,3.6
					c2.5,2.4,3.8,5.8,3.8,10.2c0,4.4-1.3,7.7-3.8,10.1c-2.5,2.4-6,3.6-10.6,3.6H19.7z M9.8,72.9h22.3c8.2,0,14.4-1.8,18.5-5.5
					c4.2-3.7,6.3-9.1,6.3-16.2c0-7.2-2.1-12.6-6.3-16.3c-4.2-3.7-10.4-5.5-18.5-5.5H19.7V0H9.8V72.9z"/>
			</g>
			<g>
				<path id="DejaVuSans-61_00000038404523546404352810000006064476962734615213_" d="M90.1,27.5c-7.3,0-12.3-0.8-15.1-2.5
					s-4.2-4.5-4.2-8.5c0-3.2,1.1-5.7,3.2-7.6c2.1-1.9,5-2.8,8.6-2.8c5,0,9,1.8,12,5.3c3,3.5,4.5,8.2,4.5,14.1v2H90.1z M108,31.2V0
					h-9v8.3C97,5,94.4,2.5,91.3,1s-6.8-2.4-11.2-2.4c-5.6,0-10,1.6-13.4,4.7c-3.3,3.1-5,7.4-5,12.6c0,6.1,2.1,10.8,6.2,13.9
					c4.1,3.1,10.3,4.7,18.4,4.7H99v0.9c0,4.1-1.4,7.3-4.1,9.6s-6.5,3.4-11.5,3.4c-3.1,0-6.2-0.4-9.1-1.1c-3-0.8-5.8-1.9-8.5-3.4v8.3
					c3.3,1.3,6.5,2.2,9.6,2.8c3.1,0.6,6.1,1,9,1c7.9,0,13.8-2.1,17.7-6.2C106.1,45.8,108,39.5,108,31.2z"/>
			</g>
			<g>
				<path id="DejaVuSans-72_00000101810074807828976600000009847338917715818679_" d="M158.2,46.3c-1,0.6-2.1,1-3.3,1.3
					c-1.2,0.3-2.5,0.4-3.9,0.4c-5.1,0-9-1.7-11.7-5s-4.1-8-4.1-14.2V0h-9v54.7h9v-8.5c1.9,3.3,4.4,5.8,7.4,7.4c3,1.6,6.7,2.4,11,2.4
					c0.6,0,1.3,0,2-0.1c0.8-0.1,1.6-0.2,2.5-0.4L158.2,46.3z"/>
			</g>
			<g>
				<path id="DejaVuSans-61_00000175282193980794809250000017756617658392371618_" d="M192.5,27.5c-7.3,0-12.3-0.8-15.1-2.5
					c-2.8-1.7-4.2-4.5-4.2-8.5c0-3.2,1.1-5.7,3.2-7.6c2.1-1.9,5-2.8,8.6-2.8c5,0,9,1.8,12,5.3s4.5,8.2,4.5,14.1v2H192.5z
					 M210.4,31.2V0h-9v8.3c-2.1-3.3-4.6-5.8-7.7-7.3s-6.8-2.4-11.2-2.4c-5.6,0-10,1.6-13.4,4.7c-3.3,3.1-5,7.4-5,12.6
					c0,6.1,2.1,10.8,6.2,13.9c4.1,3.1,10.3,4.7,18.4,4.7h12.6v0.9c0,4.1-1.4,7.3-4.1,9.6s-6.5,3.4-11.5,3.4c-3.1,0-6.2-0.4-9.1-1.1
					c-3-0.8-5.8-1.9-8.5-3.4v8.3c3.3,1.3,6.5,2.2,9.6,2.8c3.1,0.6,6.1,1,9,1c7.9,0,13.8-2.1,17.7-6.2
					C208.4,45.8,210.4,39.5,210.4,31.2z"/>
			</g>
			<g>
				<path id="DejaVuSans-2d_00000137844020467476991900000013566881836450391197_" d="M224.4,31.4h26.3v-8h-26.3V31.4z"/>
			</g>
			<g>
				<path id="DejaVuSans-53_00000027592480883925660080000012444775549302757041_" d="M309.1,70.5v-9.6c-3.7,1.8-7.3,3.1-10.6,4
					c-3.3,0.9-6.5,1.3-9.6,1.3c-5.4,0-9.5-1-12.4-3.1c-2.9-2.1-4.4-5-4.4-8.9c0-3.2,1-5.7,2.9-7.3c1.9-1.6,5.6-3,11-4l6-1.2
					c7.4-1.4,12.8-3.9,16.3-7.4s5.2-8.3,5.2-14.2c0-7.1-2.4-12.4-7.1-16.1c-4.7-3.6-11.7-5.5-20.8-5.5c-3.4,0-7.1,0.4-11,1.2
					c-3.9,0.8-7.9,1.9-12.1,3.5v10.2c4-2.2,7.9-3.9,11.8-5.1c3.8-1.1,7.6-1.7,11.3-1.7c5.6,0,10,1.1,13,3.3c3.1,2.2,4.6,5.4,4.6,9.5
					c0,3.6-1.1,6.4-3.3,8.4c-2.2,2-5.8,3.5-10.8,4.5l-6,1.2c-7.4,1.5-12.7,3.8-16,6.9c-3.3,3.1-4.9,7.5-4.9,13
					c0,6.4,2.3,11.5,6.8,15.2s10.8,5.6,18.8,5.6c3.4,0,6.9-0.3,10.5-0.9C301.7,72.7,305.4,71.7,309.1,70.5z"/>
			</g>
			<g>
				<path id="DejaVuSans-54_00000175280591607363425340000010416570962272905919_" d="M318.7,72.9h61.7v-8.3h-25.9V0h-9.9v64.6
					h-25.9V72.9z"/>
			</g>
			<g>
				<path id="DejaVuSans-53_00000182515606537575716870000001174959453725105815_" d="M433.6,70.5v-9.6c-3.7,1.8-7.3,3.1-10.6,4
					c-3.3,0.9-6.5,1.3-9.6,1.3c-5.4,0-9.5-1-12.4-3.1c-2.9-2.1-4.4-5-4.4-8.9c0-3.2,1-5.7,2.9-7.3c1.9-1.6,5.6-3,11-4l6-1.2
					c7.4-1.4,12.8-3.9,16.3-7.4S438,26,438,20.1c0-7.1-2.4-12.4-7.1-16.1c-4.7-3.6-11.7-5.5-20.8-5.5c-3.4,0-7.1,0.4-11,1.2
					c-3.9,0.8-7.9,1.9-12.1,3.5v10.2c4-2.2,7.9-3.9,11.8-5.1c3.8-1.1,7.6-1.7,11.3-1.7c5.6,0,10,1.1,13,3.3c3.1,2.2,4.6,5.4,4.6,9.5
					c0,3.6-1.1,6.4-3.3,8.4c-2.2,2-5.8,3.5-10.8,4.5l-6,1.2c-7.4,1.5-12.7,3.8-16,6.9c-3.3,3.1-4.9,7.5-4.9,13
					c0,6.4,2.3,11.5,6.8,15.2s10.8,5.6,18.8,5.6c3.4,0,6.9-0.3,10.5-0.9C426.3,72.7,429.9,71.7,433.6,70.5z"/>
			</g>
		</g>
	</g>
	<g id="line2d_24">
		<g>
			<g>
				<path id="mb9db0642b9" class="st2" d="M205.8,45.6c0.8,0,1.6-0.3,2.1-0.9c0.6-0.6,0.9-1.3,0.9-2.1s-0.3-1.6-0.9-2.1
					c-0.6-0.6-1.3-0.9-2.1-0.9s-1.6,0.3-2.1,0.9c-0.6,0.6-0.9,1.3-0.9,2.1s0.3,1.6,0.9,2.1C204.3,45.3,205,45.6,205.8,45.6z"/>
			</g>
		</g>
	</g>
	<g id="line2d_25">
		<g>
			<g>
				<path id="m42e6402b58" class="st13" d="M205.8,60.2c0.8,0,1.6-0.3,2.1-0.9c0.6-0.6,0.9-1.3,0.9-2.1s-0.3-1.6-0.9-2.1
					c-0.6-0.6-1.3-0.9-2.1-0.9s-1.6,0.3-2.1,0.9c-0.6,0.6-0.9,1.3-0.9,2.1s0.3,1.6,0.9,2.1C204.3,59.9,205,60.2,205.8,60.2z"/>
			</g>
		</g>
	</g>
	<g id="line2d_26">
		<g>
			<g>
				<path id="mefe73a6040" class="st24" d="M205.8,74.9c0.8,0,1.6-0.3,2.1-0.9c0.6-0.6,0.9-1.3,0.9-2.1s-0.3-1.6-0.9-2.1
					c-0.6-0.6-1.3-0.9-2.1-0.9s-1.6,0.3-2.1,0.9c-0.6,0.6-0.9,1.3-0.9,2.1s0.3,1.6,0.9,2.1C204.3,74.6,205,74.9,205.8,74.9z"/>
			</g>
		</g>
	</g>
</g>
</svg>
